  0
SECTION
  2
HEADER
  9
$ACADVER
  1
AC1014
  9
$ACADMAINTVER
 70
     9
  9
$DWGCODEPAGE
  3
ANSI_1252
  9
$INSBASE
 10
0.0
 20
0.0
 30
0.0
  9
$EXTMIN
 10
-298.0133791393607
 20
-114.4634379305294
 30
0.0
  9
$EXTMAX
 10
-117.1519709070772
 20
37.49996121020211
 30
0.0
  9
$LIMMIN
 10
0.0
 20
0.0
  9
$LIMMAX
 10
12.0
 20
9.0
  9
$ORTHOMODE
 70
     0
  9
$REGENMODE
 70
     1
  9
$FILLMODE
 70
     1
  9
$QTEXTMODE
 70
     0
  9
$MIRRTEXT
 70
     1
  9
$DRAGMODE
 70
     2
  9
$LTSCALE
 40
1.0
  9
$OSMODE
 70
    37
  9
$ATTMODE
 70
     1
  9
$TEXTSIZE
 40
0.2
  9
$TRACEWID
 40
0.05
  9
$TEXTSTYLE
  7
STANDARD
  9
$CLAYER
  8
0
  9
$CELTYPE
  6
BYLAYER
  9
$CECOLOR
 62
   256
  9
$CELTSCALE
 40
1.0
  9
$DELOBJ
 70
     1
  9
$DISPSILH
 70
     0
  9
$DIMSCALE
 40
1.0
  9
$DIMASZ
 40
0.18
  9
$DIMEXO
 40
0.0625
  9
$DIMDLI
 40
0.38
  9
$DIMRND
 40
0.0
  9
$DIMDLE
 40
0.0
  9
$DIMEXE
 40
0.18
  9
$DIMTP
 40
0.0
  9
$DIMTM
 40
0.0
  9
$DIMTXT
 40
0.18
  9
$DIMCEN
 40
0.09
  9
$DIMTSZ
 40
0.0
  9
$DIMTOL
 70
     0
  9
$DIMLIM
 70
     0
  9
$DIMTIH
 70
     1
  9
$DIMTOH
 70
     1
  9
$DIMSE1
 70
     0
  9
$DIMSE2
 70
     0
  9
$DIMTAD
 70
     0
  9
$DIMZIN
 70
     0
  9
$DIMBLK
  1

  9
$DIMASO
 70
     1
  9
$DIMSHO
 70
     1
  9
$DIMPOST
  1

  9
$DIMAPOST
  1

  9
$DIMALT
 70
     0
  9
$DIMALTD
 70
     2
  9
$DIMALTF
 40
25.4
  9
$DIMLFAC
 40
1.0
  9
$DIMTOFL
 70
     0
  9
$DIMTVP
 40
0.0
  9
$DIMTIX
 70
     0
  9
$DIMSOXD
 70
     0
  9
$DIMSAH
 70
     0
  9
$DIMBLK1
  1

  9
$DIMBLK2
  1

  9
$DIMSTYLE
  2
STANDARD
  9
$DIMCLRD
 70
     0
  9
$DIMCLRE
 70
     0
  9
$DIMCLRT
 70
     0
  9
$DIMTFAC
 40
1.0
  9
$DIMGAP
 40
0.09
  9
$DIMJUST
 70
     0
  9
$DIMSD1
 70
     0
  9
$DIMSD2
 70
     0
  9
$DIMTOLJ
 70
     1
  9
$DIMTZIN
 70
     0
  9
$DIMALTZ
 70
     0
  9
$DIMALTTZ
 70
     0
  9
$DIMFIT
 70
     5
  9
$DIMUPT
 70
     0
  9
$DIMUNIT
 70
     2
  9
$DIMDEC
 70
     4
  9
$DIMTDEC
 70
     4
  9
$DIMALTU
 70
     2
  9
$DIMALTTD
 70
     2
  9
$DIMTXSTY
  7
STANDARD
  9
$DIMAUNIT
 70
     0
  9
$LUNITS
 70
     2
  9
$LUPREC
 70
     3
  9
$SKETCHINC
 40
0.1
  9
$FILLETRAD
 40
0.5
  9
$AUNITS
 70
     0
  9
$AUPREC
 70
     0
  9
$MENU
  1
.
  9
$ELEVATION
 40
0.0
  9
$PELEVATION
 40
0.0
  9
$THICKNESS
 40
0.0
  9
$LIMCHECK
 70
     0
  9
$CHAMFERA
 40
0.0
  9
$CHAMFERB
 40
0.0
  9
$CHAMFERC
 40
0.0
  9
$CHAMFERD
 40
0.0
  9
$SKPOLY
 70
     0
  9
$TDCREATE
 40
2457897.835558704
  9
$TDUPDATE
 40
2457897.835558727
  9
$TDINDWG
 40
0.0000000116
  9
$TDUSRTIMER
 40
0.0000000116
  9
$USRTIMER
 70
     1
  9
$ANGBASE
 50
0.0
  9
$ANGDIR
 70
     0
  9
$PDMODE
 70
     0
  9
$PDSIZE
 40
0.0
  9
$PLINEWID
 40
0.0
  9
$COORDS
 70
     1
  9
$SPLFRAME
 70
     0
  9
$SPLINETYPE
 70
     6
  9
$SPLINESEGS
 70
     8
  9
$ATTDIA
 70
     0
  9
$ATTREQ
 70
     1
  9
$HANDLING
 70
     1
  9
$HANDSEED
  5
176
  9
$SURFTAB1
 70
     6
  9
$SURFTAB2
 70
     6
  9
$SURFTYPE
 70
     6
  9
$SURFU
 70
     6
  9
$SURFV
 70
     6
  9
$UCSNAME
  2

  9
$UCSORG
 10
0.0
 20
0.0
 30
0.0
  9
$UCSXDIR
 10
1.0
 20
0.0
 30
0.0
  9
$UCSYDIR
 10
0.0
 20
1.0
 30
0.0
  9
$PUCSNAME
  2

  9
$PUCSORG
 10
0.0
 20
0.0
 30
0.0
  9
$PUCSXDIR
 10
1.0
 20
0.0
 30
0.0
  9
$PUCSYDIR
 10
0.0
 20
1.0
 30
0.0
  9
$USERI1
 70
     0
  9
$USERI2
 70
     0
  9
$USERI3
 70
     0
  9
$USERI4
 70
     0
  9
$USERI5
 70
     0
  9
$USERR1
 40
0.0
  9
$USERR2
 40
0.0
  9
$USERR3
 40
0.0
  9
$USERR4
 40
0.0
  9
$USERR5
 40
0.0
  9
$WORLDVIEW
 70
     1
  9
$SHADEDGE
 70
     3
  9
$SHADEDIF
 70
    70
  9
$TILEMODE
 70
     1
  9
$MAXACTVP
 70
    64
  9
$PINSBASE
 10
0.0
 20
0.0
 30
0.0
  9
$PLIMCHECK
 70
     0
  9
$PEXTMIN
 10
1.000000000000000E+20
 20
1.000000000000000E+20
 30
1.000000000000000E+20
  9
$PEXTMAX
 10
-1.000000000000000E+20
 20
-1.000000000000000E+20
 30
-1.000000000000000E+20
  9
$PLIMMIN
 10
0.0
 20
0.0
  9
$PLIMMAX
 10
12.0
 20
9.0
  9
$UNITMODE
 70
     0
  9
$VISRETAIN
 70
     1
  9
$PLINEGEN
 70
     0
  9
$PSLTSCALE
 70
     1
  9
$TREEDEPTH
 70
  3020
  9
$PICKSTYLE
 70
     1
  9
$CMLSTYLE
  2
STANDARD
  9
$CMLJUST
 70
     0
  9
$CMLSCALE
 40
1.0
  9
$PROXYGRAPHICS
 70
     1
  9
$MEASUREMENT
 70
     0
  0
ENDSEC
  0
SECTION
  2
CLASSES
  0
CLASS
  1
ACDBDICTIONARYWDFLT
  2
AcDbDictionaryWithDefault
  3
ObjectDBX Classes
 90
        0
280
     0
281
     0
  0
CLASS
  1
VISUALSTYLE
  2
AcDbVisualStyle
  3
ObjectDBX Classes
 90
     4095
280
     0
281
     0
  0
CLASS
  1
MATERIAL
  2
AcDbMaterial
  3
ObjectDBX Classes
 90
     1153
280
     0
281
     0
  0
CLASS
  1
SCALE
  2
AcDbScale
  3
ObjectDBX Classes
 90
     1153
280
     0
281
     0
  0
CLASS
  1
TABLESTYLE
  2
AcDbTableStyle
  3
ObjectDBX Classes
 90
     4095
280
     0
281
     0
  0
CLASS
  1
MLEADERSTYLE
  2
AcDbMLeaderStyle
  3
ACDB_MLEADERSTYLE_CLASS
 90
     4095
280
     0
281
     0
  0
CLASS
  1
SUN
  2
AcDbSun
  3
SCENEOE
 90
     1153
280
     0
281
     0
  0
CLASS
  1
DICTIONARYVAR
  2
AcDbDictionaryVar
  3
ObjectDBX Classes
 90
        0
280
     0
281
     0
  0
CLASS
  1
XRECORD
  2
AcDbXrecord
  3
ObjectDBX Classes
 90
        0
280
     0
281
     0
  0
CLASS
  1
LWPOLYLINE
  2
AcDbPolyline
  3
ObjectDBX Classes
 90
        0
280
     0
281
     1
  0
CLASS
  1
HATCH
  2
AcDbHatch
  3
ObjectDBX Classes
 90
        0
280
     0
281
     1
  0
CLASS
  1
ACDBPLACEHOLDER
  2
AcDbPlaceHolder
  3
ObjectDBX Classes
 90
        0
280
     0
281
     0
  0
CLASS
  1
LAYOUT
  2
AcDbLayout
  3
ObjectDBX Classes
 90
        0
280
     0
281
     0
  0
ENDSEC
  0
SECTION
  2
TABLES
  0
TABLE
  2
VPORT
  5
8
102
{ACAD_XDICTIONARY
360
16B
102
}
330
0
100
AcDbSymbolTable
 70
     1
  0
VPORT
  5
29
330
8
100
AcDbSymbolTableRecord
100
AcDbViewportTableRecord
  2
*ACTIVE
 70
     0
 10
0.0
 20
0.0
 11
1.0
 21
1.0
 12
-207.5826750232189
 22
-38.48173836016362
 13
0.0
 23
0.0
 14
0.5
 24
0.5
 15
0.5
 25
0.5
 16
0.0
 26
0.0
 36
1.0
 17
0.0
 27
0.0
 37
0.0
 40
155.0026671235461
 41
1.190164271495336
 42
50.0
 43
0.0
 44
0.0
 50
0.0
 51
0.0
 71
     0
 72
   100
 73
     1
 74
     3
 75
     0
 76
     0
 77
     0
 78
     0
  0
ENDTAB
  0
TABLE
  2
LTYPE
  5
5
330
0
100
AcDbSymbolTable
 70
     1
  0
LTYPE
  5
14
330
5
100
AcDbSymbolTableRecord
100
AcDbLinetypeTableRecord
  2
BYBLOCK
 70
     0
  3

 72
    65
 73
     0
 40
0.0
  0
LTYPE
  5
15
330
5
100
AcDbSymbolTableRecord
100
AcDbLinetypeTableRecord
  2
BYLAYER
 70
     0
  3

 72
    65
 73
     0
 40
0.0
  0
LTYPE
  5
16
330
5
100
AcDbSymbolTableRecord
100
AcDbLinetypeTableRecord
  2
CONTINUOUS
 70
     0
  3
Solid line
 72
    65
 73
     0
 40
0.0
  0
ENDTAB
  0
TABLE
  2
LAYER
  5
2
330
0
100
AcDbSymbolTable
 70
     4
  0
LAYER
  5
10
330
2
100
AcDbSymbolTableRecord
100
AcDbLayerTableRecord
  2
0
 70
     0
 62
     7
  6
CONTINUOUS
  0
LAYER
  5
6E
330
2
100
AcDbSymbolTableRecord
100
AcDbLayerTableRecord
  2
MOTORFRAMEPLATEUPPER$LASER
 70
     0
 62
    18
  6
CONTINUOUS
  0
LAYER
  5
99
330
2
100
AcDbSymbolTableRecord
100
AcDbLayerTableRecord
  2
MOTORFRAMEBOTTOM$LASERCUT
 70
     0
 62
    18
  6
CONTINUOUS
  0
LAYER
  5
A6
330
2
100
AcDbSymbolTableRecord
100
AcDbLayerTableRecord
  2
MOTORFRAMETOP$LASERCUT
 70
     0
 62
    18
  6
CONTINUOUS
  0
ENDTAB
  0
TABLE
  2
STYLE
  5
3
330
0
100
AcDbSymbolTable
 70
     1
  0
STYLE
  5
11
330
3
100
AcDbSymbolTableRecord
100
AcDbTextStyleTableRecord
  2
STANDARD
 70
     0
 40
0.0
 41
1.0
 50
0.0
 71
     0
 42
0.2
  3
txt
  4

  0
ENDTAB
  0
TABLE
  2
VIEW
  5
6
330
0
100
AcDbSymbolTable
 70
     0
  0
ENDTAB
  0
TABLE
  2
UCS
  5
7
330
0
100
AcDbSymbolTable
 70
     0
  0
ENDTAB
  0
TABLE
  2
APPID
  5
9
330
0
100
AcDbSymbolTable
 70
     2
  0
APPID
  5
12
330
9
100
AcDbSymbolTableRecord
100
AcDbRegAppTableRecord
  2
ACAD
 70
     0
  0
APPID
  5
175
330
9
100
AcDbSymbolTableRecord
100
AcDbRegAppTableRecord
  2
ACAD_MLEADERVER
 70
     0
  0
ENDTAB
  0
TABLE
  2
DIMSTYLE
  5
A
330
0
100
AcDbSymbolTable
 70
     1
  0
DIMSTYLE
105
27
330
A
100
AcDbSymbolTableRecord
100
AcDbDimStyleTableRecord
  2
STANDARD
 70
     0
  3

  4

  5

  6

  7

 40
1.0
 41
0.18
 42
0.0625
 43
0.38
 44
0.18
 45
0.0
 46
0.0
 47
0.0
 48
0.0
140
0.18
141
0.09
142
0.0
143
25.4
144
1.0
145
0.0
146
1.0
147
0.09
 71
     0
 72
     0
 73
     1
 74
     1
 75
     0
 76
     0
 77
     0
 78
     0
170
     0
171
     2
172
     0
173
     0
174
     0
175
     0
176
     0
177
     0
178
     0
270
     2
271
     4
272
     4
273
     2
274
     2
340
11
275
     0
280
     0
281
     0
282
     0
283
     1
284
     0
285
     0
286
     0
287
     3
288
     0
  0
ENDTAB
  0
TABLE
  2
BLOCK_RECORD
  5
1
330
0
100
AcDbSymbolTable
 70
     1
  0
BLOCK_RECORD
  5
1F
330
1
100
AcDbSymbolTableRecord
100
AcDbBlockTableRecord
  2
*MODEL_SPACE
  0
BLOCK_RECORD
  5
1B
330
1
100
AcDbSymbolTableRecord
100
AcDbBlockTableRecord
  2
*PAPER_SPACE
  0
ENDTAB
  0
ENDSEC
  0
SECTION
  2
BLOCKS
  0
BLOCK
  5
20
330
1F
100
AcDbEntity
  8
0
100
AcDbBlockBegin
  2
*MODEL_SPACE
 70
     0
 10
0.0
 20
0.0
 30
0.0
  3
*MODEL_SPACE
  1

  0
ENDBLK
  5
21
330
1F
100
AcDbEntity
  8
0
100
AcDbBlockEnd
  0
BLOCK
  5
1C
330
1B
100
AcDbEntity
 67
     1
  8
0
100
AcDbBlockBegin
  2
*PAPER_SPACE
 70
     0
 10
0.0
 20
0.0
 30
0.0
  3
*PAPER_SPACE
  1

  0
ENDBLK
  5
1D
330
1B
100
AcDbEntity
 67
     1
  8
0
100
AcDbBlockEnd
  0
ENDSEC
  0
SECTION
  2
ENTITIES
  0
CIRCLE
  5
6F
330
1F
100
AcDbEntity
  8
MOTORFRAMEPLATEUPPER$LASER
100
AcDbCircle
 10
-282.013379139322
 20
-11.41190759580547
 30
0.0
 40
8.500000000004233
  0
CIRCLE
  5
70
330
1F
100
AcDbEntity
  8
MOTORFRAMEPLATEUPPER$LASER
100
AcDbCircle
 10
-276.0133795377795
 20
-24.16799384740415
 30
0.0
 40
1.0
  0
CIRCLE
  5
71
330
1F
100
AcDbEntity
  8
MOTORFRAMEPLATEUPPER$LASER
100
AcDbCircle
 10
-274.0133791393217
 20
11.05649390310733
 30
0.0
 40
1.5
  0
CIRCLE
  5
72
330
1F
100
AcDbEntity
  8
MOTORFRAMEPLATEUPPER$LASER
100
AcDbCircle
 10
-290.0133791393222
 20
11.05649390310744
 30
0.0
 40
1.5
  0
POLYLINE
  5
73
330
1F
100
AcDbEntity
  8
MOTORFRAMEPLATEUPPER$LASER
100
AcDb2dPolyline
 66
     1
 10
0.0
 20
0.0
 30
0.0
  0
VERTEX
  5
74
330
73
100
AcDbEntity
  8
MOTORFRAMEPLATEUPPER$LASER
100
AcDbVertex
100
AcDb2dVertex
 10
-270.0133791393222
 20
-30.24031578045235
 30
0.0
  0
VERTEX
  5
75
330
73
100
AcDbEntity
  8
MOTORFRAMEPLATEUPPER$LASER
100
AcDbVertex
100
AcDb2dVertex
 10
-270.0133791393222
 20
14.75968421954765
 30
0.0
  0
VERTEX
  5
76
330
73
100
AcDbEntity
  8
MOTORFRAMEPLATEUPPER$LASER
100
AcDbVertex
100
AcDb2dVertex
 10
-294.0133791393222
 20
14.75968421954765
 30
0.0
  0
VERTEX
  5
77
330
73
100
AcDbEntity
  8
MOTORFRAMEPLATEUPPER$LASER
100
AcDbVertex
100
AcDb2dVertex
 10
-294.0133791393222
 20
-30.24031578045235
 30
0.0
  0
SEQEND
  5
78
330
73
100
AcDbEntity
  8
MOTORFRAMEPLATEUPPER$LASER
  0
LINE
  5
79
330
1F
100
AcDbEntity
  8
MOTORFRAMEPLATEUPPER$LASER
100
AcDbLine
 10
-294.0133791393222
 20
-30.24031578045235
 30
0.0
 11
-298.0133791393607
 21
-34.24031625725104
 31
0.0
  0
LINE
  5
7A
330
1F
100
AcDbEntity
  8
MOTORFRAMEPLATEUPPER$LASER
100
AcDbLine
 10
-298.0133791393607
 20
-34.24031625725104
 30
0.0
 11
-293.7707381994011
 21
-38.48295669153008
 31
0.0
  0
LINE
  5
7B
330
1F
100
AcDbEntity
  8
MOTORFRAMEPLATEUPPER$LASER
100
AcDbLine
 10
-293.7707381994011
 20
-38.48295669153008
 30
0.0
 11
-288.5940948844716
 21
-33.3063127595962
 31
0.0
  0
LINE
  5
7C
330
1F
100
AcDbEntity
  8
MOTORFRAMEPLATEUPPER$LASER
100
AcDbLine
 10
-288.5940948844716
 20
-33.3063127595962
 30
0.0
 11
-288.5940948844716
 21
-30.24031578045235
 31
0.0
  0
LINE
  5
7D
330
1F
100
AcDbEntity
  8
MOTORFRAMEPLATEUPPER$LASER
100
AcDbLine
 10
-288.5940948844716
 20
-30.24031578045235
 30
0.0
 11
-275.4326633941723
 21
-30.24031578045245
 31
0.0
  0
LINE
  5
7E
330
1F
100
AcDbEntity
  8
MOTORFRAMEPLATEUPPER$LASER
100
AcDbLine
 10
-275.4326633941723
 20
-30.24031578045245
 30
0.0
 11
-275.4326633941724
 21
-33.30631275959639
 31
0.0
  0
LINE
  5
7F
330
1F
100
AcDbEntity
  8
MOTORFRAMEPLATEUPPER$LASER
100
AcDbLine
 10
-275.4326633941724
 20
-33.30631275959639
 30
0.0
 11
-270.2560200792431
 21
-38.48295669153043
 31
0.0
  0
LINE
  5
80
330
1F
100
AcDbEntity
  8
MOTORFRAMEPLATEUPPER$LASER
100
AcDbLine
 10
-270.2560200792431
 20
-38.48295669153043
 30
0.0
 11
-266.0133791392834
 21
-34.24031625725151
 31
0.0
  0
LINE
  5
81
330
1F
100
AcDbEntity
  8
MOTORFRAMEPLATEUPPER$LASER
100
AcDbLine
 10
-266.0133791392834
 20
-34.24031625725151
 30
0.0
 11
-270.0133791393222
 21
-30.24031578045235
 31
0.0
  0
CIRCLE
  5
82
330
1F
100
AcDbEntity
  8
MOTORFRAMEPLATEUPPER$LASER
100
AcDbCircle
 10
-293.2622483053839
 20
-33.7860764242087
 30
0.0
 40
1.5
  0
CIRCLE
  5
83
330
1F
100
AcDbEntity
  8
MOTORFRAMEPLATEUPPER$LASER
100
AcDbCircle
 10
-270.7645099732599
 20
-33.78607642420927
 30
0.0
 40
1.5
  0
CIRCLE
  5
84
330
1F
100
AcDbEntity
  8
MOTORFRAMEPLATEUPPER$LASER
100
AcDbCircle
 10
-293.2622483053843
 20
-44.46411089109431
 30
0.0
 40
1.5
  0
CIRCLE
  5
85
330
1F
100
AcDbEntity
  8
MOTORFRAMEPLATEUPPER$LASER
100
AcDbCircle
 10
-270.7645099732602
 20
-44.46411089109488
 30
0.0
 40
1.5
  0
POLYLINE
  5
86
330
1F
100
AcDbEntity
  8
MOTORFRAMEPLATEUPPER$LASER
100
AcDb2dPolyline
 66
     1
 10
0.0
 20
0.0
 30
0.0
  0
VERTEX
  5
87
330
86
100
AcDbEntity
  8
MOTORFRAMEPLATEUPPER$LASER
100
AcDbVertex
100
AcDb2dVertex
 10
-294.013379139322
 20
-48.00987153485121
 30
0.0
  0
VERTEX
  5
88
330
86
100
AcDbEntity
  8
MOTORFRAMEPLATEUPPER$LASER
100
AcDbVertex
100
AcDb2dVertex
 10
-294.013379139322
 20
-93.00987153485121
 30
0.0
  0
VERTEX
  5
89
330
86
100
AcDbEntity
  8
MOTORFRAMEPLATEUPPER$LASER
100
AcDbVertex
100
AcDb2dVertex
 10
-270.013379139322
 20
-93.00987153485121
 30
0.0
  0
VERTEX
  5
8A
330
86
100
AcDbEntity
  8
MOTORFRAMEPLATEUPPER$LASER
100
AcDbVertex
100
AcDb2dVertex
 10
-270.013379139322
 20
-48.00987153485121
 30
0.0
  0
SEQEND
  5
8B
330
86
100
AcDbEntity
  8
MOTORFRAMEPLATEUPPER$LASER
  0
LINE
  5
8C
330
1F
100
AcDbEntity
  8
MOTORFRAMEPLATEUPPER$LASER
100
AcDbLine
 10
-270.013379139322
 20
-48.00987153485121
 30
0.0
 11
-266.0133791392835
 21
-44.00987105805252
 31
0.0
  0
LINE
  5
8D
330
1F
100
AcDbEntity
  8
MOTORFRAMEPLATEUPPER$LASER
100
AcDbLine
 10
-266.0133791392835
 20
-44.00987105805252
 30
0.0
 11
-270.256020079243
 21
-39.76723062377349
 31
0.0
  0
LINE
  5
8E
330
1F
100
AcDbEntity
  8
MOTORFRAMEPLATEUPPER$LASER
100
AcDbLine
 10
-270.256020079243
 20
-39.76723062377349
 30
0.0
 11
-275.4326633941726
 21
-44.94387455570737
 31
0.0
  0
LINE
  5
8F
330
1F
100
AcDbEntity
  8
MOTORFRAMEPLATEUPPER$LASER
100
AcDbLine
 10
-275.4326633941726
 20
-44.94387455570737
 30
0.0
 11
-275.4326633941726
 21
-48.00987153485121
 31
0.0
  0
LINE
  5
90
330
1F
100
AcDbEntity
  8
MOTORFRAMEPLATEUPPER$LASER
100
AcDbLine
 10
-275.4326633941726
 20
-48.00987153485121
 30
0.0
 11
-288.5940948844718
 21
-48.00987153485111
 31
0.0
  0
LINE
  5
91
330
1F
100
AcDbEntity
  8
MOTORFRAMEPLATEUPPER$LASER
100
AcDbLine
 10
-288.5940948844718
 20
-48.00987153485111
 30
0.0
 11
-288.5940948844718
 21
-44.94387455570718
 31
0.0
  0
LINE
  5
92
330
1F
100
AcDbEntity
  8
MOTORFRAMEPLATEUPPER$LASER
100
AcDbLine
 10
-288.5940948844718
 20
-44.94387455570718
 30
0.0
 11
-293.7707381994011
 21
-39.76723062377314
 31
0.0
  0
LINE
  5
93
330
1F
100
AcDbEntity
  8
MOTORFRAMEPLATEUPPER$LASER
100
AcDbLine
 10
-293.7707381994011
 20
-39.76723062377314
 30
0.0
 11
-298.0133791393607
 21
-44.00987105805206
 31
0.0
  0
LINE
  5
94
330
1F
100
AcDbEntity
  8
MOTORFRAMEPLATEUPPER$LASER
100
AcDbLine
 10
-298.0133791393607
 20
-44.00987105805206
 30
0.0
 11
-294.013379139322
 21
-48.00987153485121
 31
0.0
  0
CIRCLE
  5
95
330
1F
100
AcDbEntity
  8
MOTORFRAMEPLATEUPPER$LASER
100
AcDbCircle
 10
-274.013379139322
 20
-89.306681218411
 30
0.0
 40
1.5
  0
CIRCLE
  5
96
330
1F
100
AcDbEntity
  8
MOTORFRAMEPLATEUPPER$LASER
100
AcDbCircle
 10
-290.0133791393224
 20
-89.3066812184109
 30
0.0
 40
1.5
  0
CIRCLE
  5
97
330
1F
100
AcDbEntity
  8
MOTORFRAMEPLATEUPPER$LASER
100
AcDbCircle
 10
-288.0133787408646
 20
-54.08219346789946
 30
0.0
 40
1.0
  0
CIRCLE
  5
98
330
1F
100
AcDbEntity
  8
MOTORFRAMEPLATEUPPER$LASER
100
AcDbCircle
 10
-282.0133791393222
 20
-66.83827971949806
 30
0.0
 40
8.500000000004196
  0
LINE
  5
9A
330
1F
100
AcDbEntity
  8
MOTORFRAMEBOTTOM$LASERCUT
100
AcDbLine
 10
-200.9741376455976
 20
-87.51956297193736
 30
0.0
 11
-184.5741376454468
 21
-87.51956297193736
 31
0.0
  0
LINE
  5
9B
330
1F
100
AcDbEntity
  8
MOTORFRAMEBOTTOM$LASERCUT
100
AcDbLine
 10
-184.5741376454468
 20
-87.51956297193736
 30
0.0
 11
-184.5741376454468
 21
-101.8694078399041
 31
0.0
  0
LINE
  5
9C
330
1F
100
AcDbEntity
  8
MOTORFRAMEBOTTOM$LASERCUT
100
AcDbLine
 10
-184.5741376454468
 20
-101.8694078399041
 30
0.0
 11
-184.5741376459094
 21
-104.969750501272
 31
0.0
  0
ARC
  5
9D
330
1F
100
AcDbEntity
  8
MOTORFRAMEBOTTOM$LASERCUT
100
AcDbCircle
 10
-186.5239925869904
 20
-104.9697080303938
 30
0.0
 40
1.949854941543555
100
AcDbArc
 50
269.9987519729497
 51
359.9987520086633
  0
LINE
  5
9E
330
1F
100
AcDbEntity
  8
MOTORFRAMEBOTTOM$LASERCUT
100
AcDbLine
 10
-186.524035059084
 20
-106.9195629714748
 30
0.0
 11
-188.8933853242418
 21
-106.9195629719374
 31
0.0
  0
LINE
  5
9F
330
1F
100
AcDbEntity
  8
MOTORFRAMEBOTTOM$LASERCUT
100
AcDbLine
 10
-188.8933853242418
 20
-106.9195629719374
 30
0.0
 11
-196.654889966669
 21
-106.9195629719374
 31
0.0
  0
LINE
  5
A0
330
1F
100
AcDbEntity
  8
MOTORFRAMEBOTTOM$LASERCUT
100
AcDbLine
 10
-196.654889966669
 20
-106.9195629719374
 30
0.0
 11
-199.0242402318268
 21
-106.9195629714749
 31
0.0
  0
ARC
  5
A1
330
1F
100
AcDbEntity
  8
MOTORFRAMEBOTTOM$LASERCUT
100
AcDbCircle
 10
-199.0242827039204
 20
-104.9697080303939
 30
0.0
 40
1.949854941543567
100
AcDbArc
 50
180.0012479913371
 51
270.0012480270503
  0
LINE
  5
A2
330
1F
100
AcDbEntity
  8
MOTORFRAMEBOTTOM$LASERCUT
100
AcDbLine
 10
-200.9741376450014
 20
-104.9697505012722
 30
0.0
 11
-200.974137645464
 21
-101.8694078399043
 31
0.0
  0
LINE
  5
A3
330
1F
100
AcDbEntity
  8
MOTORFRAMEBOTTOM$LASERCUT
100
AcDbLine
 10
-200.974137645464
 20
-101.8694078399043
 30
0.0
 11
-200.9741376455976
 21
-87.51956297193736
 31
0.0
  0
CIRCLE
  5
A4
330
1F
100
AcDbEntity
  8
MOTORFRAMEBOTTOM$LASERCUT
100
AcDbCircle
 10
-262.7741424103642
 20
-84.46351551012515
 30
0.0
 40
1.500000000000018
  0
CIRCLE
  5
A5
330
1F
100
AcDbEntity
  8
MOTORFRAMEBOTTOM$LASERCUT
100
AcDbCircle
 10
-262.7741424103642
 20
-69.46352726806762
 30
0.0
 40
1.499999999999999
  0
CIRCLE
  5
A7
330
1F
100
AcDbEntity
  8
MOTORFRAMETOP$LASERCUT
100
AcDbCircle
 10
-262.7542449695568
 20
7.4998718726645
 30
0.0
 40
1.499999999999994
  0
CIRCLE
  5
A8
330
1F
100
AcDbEntity
  8
MOTORFRAMETOP$LASERCUT
100
AcDbCircle
 10
-262.7542449695567
 20
-7.500116369393055
 30
0.0
 40
1.500000000000025
  0
CIRCLE
  5
A9
330
1F
100
AcDbEntity
  8
MOTORFRAMETOP$LASERCUT
100
AcDbCircle
 10
-122.7940295244137
 20
-7.500116369393066
 30
0.0
 40
1.500000000000018
  0
CIRCLE
  5
AA
330
1F
100
AcDbEntity
  8
MOTORFRAMETOP$LASERCUT
100
AcDbCircle
 10
-122.7940295244137
 20
7.499871872664492
 30
0.0
 40
1.50000000000001
  0
CIRCLE
  5
AB
330
1F
100
AcDbEntity
  8
MOTORFRAMEBOTTOM$LASERCUT
100
AcDbCircle
 10
-122.7741320836062
 20
-69.46352726806764
 30
0.0
 40
1.499999999999991
  0
CIRCLE
  5
AC
330
1F
100
AcDbEntity
  8
MOTORFRAMEBOTTOM$LASERCUT
100
AcDbCircle
 10
-122.7741320836062
 20
-84.46351551012516
 30
0.0
 40
1.500000000000001
  0
CIRCLE
  5
AD
330
1F
100
AcDbEntity
  8
MOTORFRAMETOP$LASERCUT
100
AcDbCircle
 10
-248.5575918736237
 20
-26.46122600962678
 30
0.0
 40
2.5
  0
CIRCLE
  5
AE
330
1F
100
AcDbEntity
  8
MOTORFRAMETOP$LASERCUT
100
AcDbCircle
 10
-248.5575918736237
 20
26.46098151289925
 30
0.0
 40
2.5
  0
CIRCLE
  5
AF
330
1F
100
AcDbEntity
  8
MOTORFRAMETOP$LASERCUT
100
AcDbCircle
 10
-137.0304671752031
 20
26.46098151289914
 30
0.0
 40
2.5
  0
CIRCLE
  5
B0
330
1F
100
AcDbEntity
  8
MOTORFRAMETOP$LASERCUT
100
AcDbCircle
 10
-137.0304671752032
 20
-26.46122600962686
 30
0.0
 40
2.5
  0
CIRCLE
  5
B1
330
1F
100
AcDbEntity
  8
MOTORFRAMEBOTTOM$LASERCUT
100
AcDbCircle
 10
-192.774137246985
 20
-110.4634261725868
 30
0.0
 40
1.500000000000028
  0
CIRCLE
  5
B2
330
1F
100
AcDbEntity
  8
MOTORFRAMEBOTTOM$LASERCUT
100
AcDbCircle
 10
-182.774137246985
 20
-110.4634261725868
 30
0.0
 40
1.500000000000028
  0
CIRCLE
  5
B3
330
1F
100
AcDbEntity
  8
MOTORFRAMEBOTTOM$LASERCUT
100
AcDbCircle
 10
-162.774137246985
 20
-110.4634261725868
 30
0.0
 40
1.5
  0
CIRCLE
  5
B4
330
1F
100
AcDbEntity
  8
MOTORFRAMEBOTTOM$LASERCUT
100
AcDbCircle
 10
-172.774137246985
 20
-110.4634261725868
 30
0.0
 40
1.5
  0
CIRCLE
  5
B5
330
1F
100
AcDbEntity
  8
MOTORFRAMEBOTTOM$LASERCUT
100
AcDbCircle
 10
-142.774137246985
 20
-110.4634261725868
 30
0.0
 40
1.5
  0
CIRCLE
  5
B6
330
1F
100
AcDbEntity
  8
MOTORFRAMEBOTTOM$LASERCUT
100
AcDbCircle
 10
-152.774137246985
 20
-110.4634261725868
 30
0.0
 40
1.5
  0
CIRCLE
  5
B7
330
1F
100
AcDbEntity
  8
MOTORFRAMEBOTTOM$LASERCUT
100
AcDbCircle
 10
-132.774137246985
 20
-110.4634261725868
 30
0.0
 40
1.5
  0
CIRCLE
  5
B8
330
1F
100
AcDbEntity
  8
MOTORFRAMEBOTTOM$LASERCUT
100
AcDbCircle
 10
-202.774137246985
 20
-110.4634261725868
 30
0.0
 40
1.500000000000028
  0
CIRCLE
  5
B9
330
1F
100
AcDbEntity
  8
MOTORFRAMEBOTTOM$LASERCUT
100
AcDbCircle
 10
-222.774137246985
 20
-110.4634261725868
 30
0.0
 40
1.500000000000028
  0
CIRCLE
  5
BA
330
1F
100
AcDbEntity
  8
MOTORFRAMEBOTTOM$LASERCUT
100
AcDbCircle
 10
-212.774137246985
 20
-110.4634261725868
 30
0.0
 40
1.500000000000028
  0
CIRCLE
  5
BB
330
1F
100
AcDbEntity
  8
MOTORFRAMEBOTTOM$LASERCUT
100
AcDbCircle
 10
-242.774137246985
 20
-110.4634261725868
 30
0.0
 40
1.500000000000028
  0
CIRCLE
  5
BC
330
1F
100
AcDbEntity
  8
MOTORFRAMEBOTTOM$LASERCUT
100
AcDbCircle
 10
-232.774137246985
 20
-110.4634261725868
 30
0.0
 40
1.500000000000028
  0
CIRCLE
  5
BD
330
1F
100
AcDbEntity
  8
MOTORFRAMEBOTTOM$LASERCUT
100
AcDbCircle
 10
-252.774137246985
 20
-110.4634261725868
 30
0.0
 40
1.500000000000028
  0
CIRCLE
  5
BE
330
1F
100
AcDbEntity
  8
MOTORFRAMEBOTTOM$LASERCUT
100
AcDbCircle
 10
-252.774137246985
 20
-43.46343793053032
 30
0.0
 40
1.500000000000028
  0
CIRCLE
  5
BF
330
1F
100
AcDbEntity
  8
MOTORFRAMEBOTTOM$LASERCUT
100
AcDbCircle
 10
-232.774137246985
 20
-43.46343793053032
 30
0.0
 40
1.500000000000028
  0
CIRCLE
  5
C0
330
1F
100
AcDbEntity
  8
MOTORFRAMEBOTTOM$LASERCUT
100
AcDbCircle
 10
-242.774137246985
 20
-43.46343793053032
 30
0.0
 40
1.500000000000028
  0
CIRCLE
  5
C1
330
1F
100
AcDbEntity
  8
MOTORFRAMEBOTTOM$LASERCUT
100
AcDbCircle
 10
-212.774137246985
 20
-43.46343793053032
 30
0.0
 40
1.500000000000028
  0
CIRCLE
  5
C2
330
1F
100
AcDbEntity
  8
MOTORFRAMEBOTTOM$LASERCUT
100
AcDbCircle
 10
-222.774137246985
 20
-43.46343793053032
 30
0.0
 40
1.500000000000028
  0
CIRCLE
  5
C3
330
1F
100
AcDbEntity
  8
MOTORFRAMEBOTTOM$LASERCUT
100
AcDbCircle
 10
-202.774137246985
 20
-43.46343793053032
 30
0.0
 40
1.500000000000028
  0
CIRCLE
  5
C4
330
1F
100
AcDbEntity
  8
MOTORFRAMEBOTTOM$LASERCUT
100
AcDbCircle
 10
-132.774137246985
 20
-43.46343793053036
 30
0.0
 40
1.5
  0
CIRCLE
  5
C5
330
1F
100
AcDbEntity
  8
MOTORFRAMEBOTTOM$LASERCUT
100
AcDbCircle
 10
-152.774137246985
 20
-43.46343793053036
 30
0.0
 40
1.5
  0
CIRCLE
  5
C6
330
1F
100
AcDbEntity
  8
MOTORFRAMEBOTTOM$LASERCUT
100
AcDbCircle
 10
-142.774137246985
 20
-43.46343793053036
 30
0.0
 40
1.5
  0
CIRCLE
  5
C7
330
1F
100
AcDbEntity
  8
MOTORFRAMEBOTTOM$LASERCUT
100
AcDbCircle
 10
-172.774137246985
 20
-43.46343793053038
 30
0.0
 40
1.499999999999972
  0
CIRCLE
  5
C8
330
1F
100
AcDbEntity
  8
MOTORFRAMEBOTTOM$LASERCUT
100
AcDbCircle
 10
-162.774137246985
 20
-43.46343793053036
 30
0.0
 40
1.5
  0
CIRCLE
  5
C9
330
1F
100
AcDbEntity
  8
MOTORFRAMEBOTTOM$LASERCUT
100
AcDbCircle
 10
-182.774137246985
 20
-43.46343793053032
 30
0.0
 40
1.500000000000028
  0
CIRCLE
  5
CA
330
1F
100
AcDbEntity
  8
MOTORFRAMEBOTTOM$LASERCUT
100
AcDbCircle
 10
-192.774137246985
 20
-43.46343793053032
 30
0.0
 40
1.500000000000028
  0
ARC
  5
CB
330
1F
100
AcDbEntity
  8
MOTORFRAMEBOTTOM$LASERCUT
100
AcDbCircle
 10
-142.4742801250944
 20
-61.46338974382405
 30
0.0
 40
1.49997876505806
100
AcDbArc
 50
90.0000000000011
 51
269.9999999999989
  0
LINE
  5
CC
330
1F
100
AcDbEntity
  8
MOTORFRAMEBOTTOM$LASERCUT
100
AcDbLine
 10
-142.4742801250944
 20
-62.96336850888209
 30
0.0
 11
-138.4742801250944
 21
-62.96336850888208
 31
0.0
  0
ARC
  5
CD
330
1F
100
AcDbEntity
  8
MOTORFRAMEBOTTOM$LASERCUT
100
AcDbCircle
 10
-138.4742801250943
 20
-61.46338974382405
 30
0.0
 40
1.499978765058039
100
AcDbArc
 50
269.9999999999968
 51
90.0000000000011
  0
LINE
  5
CE
330
1F
100
AcDbEntity
  8
MOTORFRAMEBOTTOM$LASERCUT
100
AcDbLine
 10
-138.4742801250944
 20
-59.96341097876599
 30
0.0
 11
-142.4742801250944
 21
-59.96341097876599
 31
0.0
  0
ARC
  5
CF
330
1F
100
AcDbEntity
  8
MOTORFRAMEBOTTOM$LASERCUT
100
AcDbCircle
 10
-142.4742685092057
 20
-92.46340633269202
 30
0.0
 40
1.499978765058032
100
AcDbArc
 50
89.99999999999892
 51
270.0000000000011
  0
LINE
  5
D0
330
1F
100
AcDbEntity
  8
MOTORFRAMEBOTTOM$LASERCUT
100
AcDbLine
 10
-142.4742685092057
 20
-93.96338509775008
 30
0.0
 11
-138.4742685092057
 21
-93.96338509775008
 31
0.0
  0
ARC
  5
D1
330
1F
100
AcDbEntity
  8
MOTORFRAMEBOTTOM$LASERCUT
100
AcDbCircle
 10
-138.4742685092057
 20
-92.46340633269207
 30
0.0
 40
1.499978765058003
100
AcDbArc
 50
270.0000000000021
 51
89.99999999999784
  0
LINE
  5
D2
330
1F
100
AcDbEntity
  8
MOTORFRAMEBOTTOM$LASERCUT
100
AcDbLine
 10
-138.4742685092057
 20
-90.96342756763399
 30
0.0
 11
-142.4742685092057
 21
-90.96342756763399
 31
0.0
  0
ARC
  5
D3
330
1F
100
AcDbEntity
  8
MOTORFRAMEBOTTOM$LASERCUT
100
AcDbCircle
 10
-173.4742558158596
 20
-92.46343149010076
 30
0.0
 40
1.499978765058046
100
AcDbArc
 50
90.0000000000011
 51
269.9999999999989
  0
LINE
  5
D4
330
1F
100
AcDbEntity
  8
MOTORFRAMEBOTTOM$LASERCUT
100
AcDbLine
 10
-173.4742558158596
 20
-93.9634102551588
 30
0.0
 11
-169.4742558158596
 21
-93.9634102551588
 31
0.0
  0
ARC
  5
D5
330
1F
100
AcDbEntity
  8
MOTORFRAMEBOTTOM$LASERCUT
100
AcDbCircle
 10
-169.4742558158596
 20
-92.46343149010076
 30
0.0
 40
1.499978765058046
100
AcDbArc
 50
270.0
 51
90.0
  0
LINE
  5
D6
330
1F
100
AcDbEntity
  8
MOTORFRAMEBOTTOM$LASERCUT
100
AcDbLine
 10
-169.4742558158596
 20
-90.96345272504271
 30
0.0
 11
-173.4742558158596
 21
-90.96345272504271
 31
0.0
  0
ARC
  5
D7
330
1F
100
AcDbEntity
  8
MOTORFRAMEBOTTOM$LASERCUT
100
AcDbCircle
 10
-173.4741102182509
 20
-61.46344975340233
 30
0.0
 40
1.499978765058032
100
AcDbArc
 50
90.00000000000217
 51
269.9999999999978
  0
LINE
  5
D8
330
1F
100
AcDbEntity
  8
MOTORFRAMEBOTTOM$LASERCUT
100
AcDbLine
 10
-173.474110218251
 20
-62.9634285184604
 30
0.0
 11
-169.474110218251
 21
-62.9634285184604
 31
0.0
  0
ARC
  5
D9
330
1F
100
AcDbEntity
  8
MOTORFRAMEBOTTOM$LASERCUT
100
AcDbCircle
 10
-169.474110218251
 20
-61.46344975340234
 30
0.0
 40
1.49997876505806
100
AcDbArc
 50
269.9999999999989
 51
90.0000000000011
  0
LINE
  5
DA
330
1F
100
AcDbEntity
  8
MOTORFRAMEBOTTOM$LASERCUT
100
AcDbLine
 10
-169.474110218251
 20
-59.9634709883443
 30
0.0
 11
-173.474110218251
 21
-59.9634709883443
 31
0.0
  0
ARC
  5
DB
330
1F
100
AcDbEntity
  8
MOTORFRAMEBOTTOM$LASERCUT
100
AcDbCircle
 10
-232.5741368519551
 20
-76.96348219301512
 30
0.0
 40
10.0
100
AcDbArc
 50
90.0
 51
270.0
  0
LINE
  5
DC
330
1F
100
AcDbEntity
  8
MOTORFRAMEBOTTOM$LASERCUT
100
AcDbLine
 10
-232.5741368519551
 20
-86.96348219301512
 30
0.0
 11
-226.5741368519551
 21
-86.96348219301512
 31
0.0
  0
ARC
  5
DD
330
1F
100
AcDbEntity
  8
MOTORFRAMEBOTTOM$LASERCUT
100
AcDbCircle
 10
-226.5741368519551
 20
-76.96348219301511
 30
0.0
 40
10.00000000000001
100
AcDbArc
 50
270.0
 51
90.0
  0
LINE
  5
DE
330
1F
100
AcDbEntity
  8
MOTORFRAMEBOTTOM$LASERCUT
100
AcDbLine
 10
-226.5741368519551
 20
-66.96348219301512
 30
0.0
 11
-232.5741368519551
 21
-66.96348219301512
 31
0.0
  0
ARC
  5
DF
330
1F
100
AcDbEntity
  8
MOTORFRAMEBOTTOM$LASERCUT
100
AcDbCircle
 10
-192.774137246985
 20
-76.96347672032721
 30
0.0
 40
75.62216633990818
100
AcDbArc
 50
150.2717519402435
 51
209.7281803724084
  0
LINE
  5
E0
330
1F
100
AcDbEntity
  8
MOTORFRAMEBOTTOM$LASERCUT
100
AcDbLine
 10
-258.4434980720615
 20
-114.4634379305292
 30
0.0
 11
-127.1047764219089
 21
-114.4634379305293
 31
0.0
  0
ARC
  5
E1
330
1F
100
AcDbEntity
  8
MOTORFRAMEBOTTOM$LASERCUT
100
AcDbCircle
 10
-192.7741372469854
 20
-76.96347672032718
 30
0.0
 40
75.62216633990822
100
AcDbArc
 50
330.2718196275914
 51
29.72824805975581
  0
LINE
  5
E2
330
1F
100
AcDbEntity
  8
MOTORFRAMEBOTTOM$LASERCUT
100
AcDbLine
 10
-127.1048207231742
 20
-39.4634379305307
 30
0.0
 11
-258.4434537707958
 21
-39.46343793053001
 31
0.0
  0
CIRCLE
  5
E3
330
1F
100
AcDbEntity
  8
MOTORFRAMEBOTTOM$LASERCUT
100
AcDbCircle
 10
-192.7741372469872
 20
-76.96347672033293
 30
0.0
 40
10.50000000000001
  0
ARC
  5
E4
330
1F
100
AcDbEntity
  8
MOTORFRAMEBOTTOM$LASERCUT
100
AcDbCircle
 10
-216.0741642757193
 20
-61.46344975340241
 30
0.0
 40
1.499978765058096
100
AcDbArc
 50
90.0
 51
270.0
  0
LINE
  5
E5
330
1F
100
AcDbEntity
  8
MOTORFRAMEBOTTOM$LASERCUT
100
AcDbLine
 10
-216.0741642757193
 20
-62.96342851846042
 30
0.0
 11
-212.0741642757193
 21
-62.96342851846042
 31
0.0
  0
ARC
  5
E6
330
1F
100
AcDbEntity
  8
MOTORFRAMEBOTTOM$LASERCUT
100
AcDbCircle
 10
-212.0741642757192
 20
-61.46344975340237
 30
0.0
 40
1.499978765058046
100
AcDbArc
 50
269.9999999999978
 51
90.00000000000217
  0
LINE
  5
E7
330
1F
100
AcDbEntity
  8
MOTORFRAMEBOTTOM$LASERCUT
100
AcDbLine
 10
-212.0741642757193
 20
-59.96347098834432
 30
0.0
 11
-216.0741642757193
 21
-59.96347098834432
 31
0.0
  0
ARC
  5
E8
330
1F
100
AcDbEntity
  8
MOTORFRAMEBOTTOM$LASERCUT
100
AcDbCircle
 10
-216.0741526598306
 20
-92.46346634227032
 30
0.0
 40
1.499978765058017
100
AcDbArc
 50
90.0000000000011
 51
269.9999999999989
  0
LINE
  5
E9
330
1F
100
AcDbEntity
  8
MOTORFRAMEBOTTOM$LASERCUT
100
AcDbLine
 10
-216.0741526598306
 20
-93.96344510732841
 30
0.0
 11
-212.0741526598306
 21
-93.9634451073284
 31
0.0
  0
ARC
  5
EA
330
1F
100
AcDbEntity
  8
MOTORFRAMEBOTTOM$LASERCUT
100
AcDbCircle
 10
-212.0741526598305
 20
-92.46346634227035
 30
0.0
 40
1.499978765058046
100
AcDbArc
 50
269.9999999999978
 51
90.00000000000217
  0
LINE
  5
EB
330
1F
100
AcDbEntity
  8
MOTORFRAMEBOTTOM$LASERCUT
100
AcDbLine
 10
-212.0741526598306
 20
-90.9634875772123
 30
0.0
 11
-216.0741526598306
 21
-90.9634875772123
 31
0.0
  0
ARC
  5
EC
330
1F
100
AcDbEntity
  8
MOTORFRAMEBOTTOM$LASERCUT
100
AcDbCircle
 10
-247.0741399664845
 20
-92.46349149967905
 30
0.0
 40
1.499978765058017
100
AcDbArc
 50
89.99999999999784
 51
270.0000000000021
  0
LINE
  5
ED
330
1F
100
AcDbEntity
  8
MOTORFRAMEBOTTOM$LASERCUT
100
AcDbLine
 10
-247.0741399664844
 20
-93.96347026473714
 30
0.0
 11
-243.0741399664844
 21
-93.96347026473714
 31
0.0
  0
ARC
  5
EE
330
1F
100
AcDbEntity
  8
MOTORFRAMEBOTTOM$LASERCUT
100
AcDbCircle
 10
-243.0741399664845
 20
-92.4634914996791
 30
0.0
 40
1.499978765058046
100
AcDbArc
 50
270.0000000000021
 51
89.99999999999784
  0
LINE
  5
EF
330
1F
100
AcDbEntity
  8
MOTORFRAMEBOTTOM$LASERCUT
100
AcDbLine
 10
-243.0741399664844
 20
-90.96351273462103
 30
0.0
 11
-247.0741399664844
 21
-90.96351273462103
 31
0.0
  0
ARC
  5
F0
330
1F
100
AcDbEntity
  8
MOTORFRAMEBOTTOM$LASERCUT
100
AcDbCircle
 10
-247.0739943688758
 20
-61.46350976298069
 30
0.0
 40
1.49997876505806
100
AcDbArc
 50
90.00000000000217
 51
269.9999999999978
  0
LINE
  5
F1
330
1F
100
AcDbEntity
  8
MOTORFRAMEBOTTOM$LASERCUT
100
AcDbLine
 10
-247.0739943688759
 20
-62.96348852803872
 30
0.0
 11
-243.0739943688759
 21
-62.96348852803872
 31
0.0
  0
ARC
  5
F2
330
1F
100
AcDbEntity
  8
MOTORFRAMEBOTTOM$LASERCUT
100
AcDbCircle
 10
-243.0739943688759
 20
-61.46350976298067
 30
0.0
 40
1.499978765058053
100
AcDbArc
 50
269.9999999999989
 51
89.99999999999892
  0
LINE
  5
F3
330
1F
100
AcDbEntity
  8
MOTORFRAMEBOTTOM$LASERCUT
100
AcDbLine
 10
-243.0739943688758
 20
-59.96353099792263
 30
0.0
 11
-247.0739943688759
 21
-59.96353099792263
 31
0.0
  0
CIRCLE
  5
F4
330
1F
100
AcDbEntity
  8
MOTORFRAMEBOTTOM$LASERCUT
100
AcDbCircle
 10
-181.5252688778423
 20
-99.33764554874192
 30
0.0
 40
1.499999999999978
  0
CIRCLE
  5
F5
330
1F
100
AcDbEntity
  8
MOTORFRAMEBOTTOM$LASERCUT
100
AcDbCircle
 10
-184.7741380439041
 20
-54.49507522142579
 30
0.0
 40
1.500000000000012
  0
CIRCLE
  5
F6
330
1F
100
AcDbEntity
  8
MOTORFRAMEBOTTOM$LASERCUT
100
AcDbCircle
 10
-200.7741380439045
 20
-54.49507522142589
 30
0.0
 40
1.500000000000003
  0
CIRCLE
  5
F7
330
1F
100
AcDbEntity
  8
MOTORFRAMEBOTTOM$LASERCUT
100
AcDbCircle
 10
-204.0230072099665
 20
-99.33764554874249
 30
0.0
 40
1.500000000000009
  0
CIRCLE
  5
F8
330
1F
100
AcDbEntity
  8
MOTORFRAMEBOTTOM$LASERCUT
100
AcDbCircle
 10
-137.0105697343957
 20
-103.424625150359
 30
0.0
 40
2.5
  0
CIRCLE
  5
F9
330
1F
100
AcDbEntity
  8
MOTORFRAMEBOTTOM$LASERCUT
100
AcDbCircle
 10
-137.0105697343956
 20
-50.50241762783295
 30
0.0
 40
2.5
  0
CIRCLE
  5
FA
330
1F
100
AcDbEntity
  8
MOTORFRAMEBOTTOM$LASERCUT
100
AcDbCircle
 10
-248.5376944328163
 20
-50.50241762783287
 30
0.0
 40
2.5
  0
CIRCLE
  5
FB
330
1F
100
AcDbEntity
  8
MOTORFRAMEBOTTOM$LASERCUT
100
AcDbCircle
 10
-248.5376944328163
 20
-103.4246251503589
 30
0.0
 40
2.5
  0
CIRCLE
  5
FC
330
1F
100
AcDbEntity
  8
MOTORFRAMETOP$LASERCUT
100
AcDbCircle
 10
-181.5451212204649
 20
-22.37416882840381
 30
0.0
 40
1.499999999999972
  0
CIRCLE
  5
FD
330
1F
100
AcDbEntity
  8
MOTORFRAMETOP$LASERCUT
100
AcDbCircle
 10
-204.0428595525889
 20
-22.37416882840324
 30
0.0
 40
1.499999999999972
  0
CIRCLE
  5
FE
330
1F
100
AcDbEntity
  8
MOTORFRAMETOP$LASERCUT
100
AcDbCircle
 10
-200.7939903865272
 20
22.46840149891287
 30
0.0
 40
1.5
  0
CIRCLE
  5
FF
330
1F
100
AcDbEntity
  8
MOTORFRAMETOP$LASERCUT
100
AcDbCircle
 10
-184.7939903865267
 20
22.4684014989128
 30
0.0
 40
1.5
  0
CIRCLE
  5
100
330
1F
100
AcDbEntity
  8
MOTORFRAMETOP$LASERCUT
100
AcDbCircle
 10
-192.7939903865272
 20
33.49994945225961
 30
0.0
 40
1.5
  0
CIRCLE
  5
101
330
1F
100
AcDbEntity
  8
MOTORFRAMETOP$LASERCUT
100
AcDbCircle
 10
-202.7939903865272
 20
33.49994945225961
 30
0.0
 40
1.5
  0
CIRCLE
  5
102
330
1F
100
AcDbEntity
  8
MOTORFRAMETOP$LASERCUT
100
AcDbCircle
 10
-222.7939903865272
 20
33.49994945225961
 30
0.0
 40
1.5
  0
CIRCLE
  5
103
330
1F
100
AcDbEntity
  8
MOTORFRAMETOP$LASERCUT
100
AcDbCircle
 10
-212.7939903865272
 20
33.49994945225961
 30
0.0
 40
1.5
  0
CIRCLE
  5
104
330
1F
100
AcDbEntity
  8
MOTORFRAMETOP$LASERCUT
100
AcDbCircle
 10
-242.7939903865272
 20
33.49994945225961
 30
0.0
 40
1.5
  0
CIRCLE
  5
105
330
1F
100
AcDbEntity
  8
MOTORFRAMETOP$LASERCUT
100
AcDbCircle
 10
-232.7939903865272
 20
33.49994945225961
 30
0.0
 40
1.5
  0
CIRCLE
  5
106
330
1F
100
AcDbEntity
  8
MOTORFRAMETOP$LASERCUT
100
AcDbCircle
 10
-252.7939903865272
 20
33.49994945225961
 30
0.0
 40
1.5
  0
CIRCLE
  5
107
330
1F
100
AcDbEntity
  8
MOTORFRAMETOP$LASERCUT
100
AcDbCircle
 10
-182.7939903865272
 20
33.49994945225961
 30
0.0
 40
1.5
  0
CIRCLE
  5
108
330
1F
100
AcDbEntity
  8
MOTORFRAMETOP$LASERCUT
100
AcDbCircle
 10
-162.7939903865272
 20
33.49994945225961
 30
0.0
 40
1.5
  0
CIRCLE
  5
109
330
1F
100
AcDbEntity
  8
MOTORFRAMETOP$LASERCUT
100
AcDbCircle
 10
-172.7939903865272
 20
33.49994945225961
 30
0.0
 40
1.5
  0
CIRCLE
  5
10A
330
1F
100
AcDbEntity
  8
MOTORFRAMETOP$LASERCUT
100
AcDbCircle
 10
-142.7939903865272
 20
33.49994945225961
 30
0.0
 40
1.5
  0
CIRCLE
  5
10B
330
1F
100
AcDbEntity
  8
MOTORFRAMETOP$LASERCUT
100
AcDbCircle
 10
-152.7939903865272
 20
33.49994945225961
 30
0.0
 40
1.5
  0
CIRCLE
  5
10C
330
1F
100
AcDbEntity
  8
MOTORFRAMETOP$LASERCUT
100
AcDbCircle
 10
-132.7939903865272
 20
33.49994945225961
 30
0.0
 40
1.5
  0
CIRCLE
  5
10D
330
1F
100
AcDbEntity
  8
MOTORFRAMETOP$LASERCUT
100
AcDbCircle
 10
-132.7939903865272
 20
-33.50003878979689
 30
0.0
 40
1.5
  0
CIRCLE
  5
10E
330
1F
100
AcDbEntity
  8
MOTORFRAMETOP$LASERCUT
100
AcDbCircle
 10
-152.7939903865272
 20
-33.50003878979689
 30
0.0
 40
1.5
  0
CIRCLE
  5
10F
330
1F
100
AcDbEntity
  8
MOTORFRAMETOP$LASERCUT
100
AcDbCircle
 10
-142.7939903865272
 20
-33.50003878979689
 30
0.0
 40
1.5
  0
CIRCLE
  5
110
330
1F
100
AcDbEntity
  8
MOTORFRAMETOP$LASERCUT
100
AcDbCircle
 10
-172.7939903865272
 20
-33.50003878979689
 30
0.0
 40
1.5
  0
CIRCLE
  5
111
330
1F
100
AcDbEntity
  8
MOTORFRAMETOP$LASERCUT
100
AcDbCircle
 10
-162.7939903865272
 20
-33.50003878979689
 30
0.0
 40
1.5
  0
CIRCLE
  5
112
330
1F
100
AcDbEntity
  8
MOTORFRAMETOP$LASERCUT
100
AcDbCircle
 10
-182.7939903865272
 20
-33.50003878979689
 30
0.0
 40
1.5
  0
CIRCLE
  5
113
330
1F
100
AcDbEntity
  8
MOTORFRAMETOP$LASERCUT
100
AcDbCircle
 10
-252.7939903865272
 20
-33.50003878979689
 30
0.0
 40
1.5
  0
CIRCLE
  5
114
330
1F
100
AcDbEntity
  8
MOTORFRAMETOP$LASERCUT
100
AcDbCircle
 10
-232.7939903865272
 20
-33.50003878979689
 30
0.0
 40
1.5
  0
CIRCLE
  5
115
330
1F
100
AcDbEntity
  8
MOTORFRAMETOP$LASERCUT
100
AcDbCircle
 10
-242.7939903865272
 20
-33.50003878979689
 30
0.0
 40
1.5
  0
CIRCLE
  5
116
330
1F
100
AcDbEntity
  8
MOTORFRAMETOP$LASERCUT
100
AcDbCircle
 10
-212.7939903865272
 20
-33.50003878979689
 30
0.0
 40
1.5
  0
CIRCLE
  5
117
330
1F
100
AcDbEntity
  8
MOTORFRAMETOP$LASERCUT
100
AcDbCircle
 10
-222.7939903865272
 20
-33.50003878979689
 30
0.0
 40
1.5
  0
CIRCLE
  5
118
330
1F
100
AcDbEntity
  8
MOTORFRAMETOP$LASERCUT
100
AcDbCircle
 10
-202.7939903865272
 20
-33.50003878979689
 30
0.0
 40
1.5
  0
CIRCLE
  5
119
330
1F
100
AcDbEntity
  8
MOTORFRAMETOP$LASERCUT
100
AcDbCircle
 10
-192.7939903865272
 20
-33.50003878979689
 30
0.0
 40
1.5
  0
ARC
  5
11A
330
1F
100
AcDbEntity
  8
MOTORFRAMETOP$LASERCUT
100
AcDbCircle
 10
-243.0938475084178
 20
-15.50008697650318
 30
0.0
 40
1.499978765058046
100
AcDbArc
 50
270.0
 51
90.0
  0
LINE
  5
11B
330
1F
100
AcDbEntity
  8
MOTORFRAMETOP$LASERCUT
100
AcDbLine
 10
-243.0938475084178
 20
-14.00010821144513
 30
0.0
 11
-247.0938475084178
 21
-14.00010821144514
 31
0.0
  0
ARC
  5
11C
330
1F
100
AcDbEntity
  8
MOTORFRAMETOP$LASERCUT
100
AcDbCircle
 10
-247.0938475084178
 20
-15.50008697650318
 30
0.0
 40
1.499978765058044
100
AcDbArc
 50
89.99999999999892
 51
270.0000000000011
  0
LINE
  5
11D
330
1F
100
AcDbEntity
  8
MOTORFRAMETOP$LASERCUT
100
AcDbLine
 10
-247.0938475084178
 20
-17.00006574156123
 30
0.0
 11
-243.0938475084178
 21
-17.00006574156123
 31
0.0
  0
ARC
  5
11E
330
1F
100
AcDbEntity
  8
MOTORFRAMETOP$LASERCUT
100
AcDbCircle
 10
-243.0938591243064
 20
15.49992961236481
 30
0.0
 40
1.499978765058049
100
AcDbArc
 50
270.0
 51
90.0
  0
LINE
  5
11F
330
1F
100
AcDbEntity
  8
MOTORFRAMETOP$LASERCUT
100
AcDbLine
 10
-243.0938591243064
 20
16.99990837742286
 30
0.0
 11
-247.0938591243064
 21
16.99990837742286
 31
0.0
  0
ARC
  5
120
330
1F
100
AcDbEntity
  8
MOTORFRAMETOP$LASERCUT
100
AcDbCircle
 10
-247.0938591243064
 20
15.49992961236481
 30
0.0
 40
1.499978765058046
100
AcDbArc
 50
90.0
 51
270.0
  0
LINE
  5
121
330
1F
100
AcDbEntity
  8
MOTORFRAMETOP$LASERCUT
100
AcDbLine
 10
-247.0938591243064
 20
13.99995084730676
 30
0.0
 11
-243.0938591243064
 21
13.99995084730676
 31
0.0
  0
ARC
  5
122
330
1F
100
AcDbEntity
  8
MOTORFRAMETOP$LASERCUT
100
AcDbCircle
 10
-212.0938718176526
 20
15.49995476977355
 30
0.0
 40
1.499978765058064
100
AcDbArc
 50
270.0
 51
90.0
  0
LINE
  5
123
330
1F
100
AcDbEntity
  8
MOTORFRAMETOP$LASERCUT
100
AcDbLine
 10
-212.0938718176526
 20
16.99993353483159
 30
0.0
 11
-216.0938718176526
 21
16.99993353483158
 31
0.0
  0
ARC
  5
124
330
1F
100
AcDbEntity
  8
MOTORFRAMETOP$LASERCUT
100
AcDbCircle
 10
-216.0938718176526
 20
15.49995476977351
 30
0.0
 40
1.499978765058072
100
AcDbArc
 50
89.99999999999892
 51
270.0
  0
LINE
  5
125
330
1F
100
AcDbEntity
  8
MOTORFRAMETOP$LASERCUT
100
AcDbLine
 10
-216.0938718176526
 20
13.99997600471549
 30
0.0
 11
-212.0938718176526
 21
13.99997600471549
 31
0.0
  0
ARC
  5
126
330
1F
100
AcDbEntity
  8
MOTORFRAMETOP$LASERCUT
100
AcDbCircle
 10
-212.0940174152611
 20
-15.50002696692485
 30
0.0
 40
1.499978765058071
100
AcDbArc
 50
269.9999999999978
 51
90.00000000000217
  0
LINE
  5
127
330
1F
100
AcDbEntity
  8
MOTORFRAMETOP$LASERCUT
100
AcDbLine
 10
-212.0940174152612
 20
-14.00004820186682
 30
0.0
 11
-216.0940174152612
 21
-14.00004820186683
 31
0.0
  0
ARC
  5
128
330
1F
100
AcDbEntity
  8
MOTORFRAMETOP$LASERCUT
100
AcDbCircle
 10
-216.0940174152612
 20
-15.50002696692488
 30
0.0
 40
1.499978765058053
100
AcDbArc
 50
90.0
 51
269.9999999999989
  0
LINE
  5
129
330
1F
100
AcDbEntity
  8
MOTORFRAMETOP$LASERCUT
100
AcDbLine
 10
-216.0940174152612
 20
-17.00000573198292
 30
0.0
 11
-212.0940174152612
 21
-17.00000573198292
 31
0.0
  0
ARC
  5
12A
330
1F
100
AcDbEntity
  8
MOTORFRAMETOP$LASERCUT
100
AcDbCircle
 10
-152.993990781557
 20
0.0000054726879065
 30
0.0
 40
9.999999999999998
100
AcDbArc
 50
270.0
 51
90.0
  0
LINE
  5
12B
330
1F
100
AcDbEntity
  8
MOTORFRAMETOP$LASERCUT
100
AcDbLine
 10
-152.993990781557
 20
10.00000547268791
 30
0.0
 11
-158.993990781557
 21
10.00000547268791
 31
0.0
  0
ARC
  5
12C
330
1F
100
AcDbEntity
  8
MOTORFRAMETOP$LASERCUT
100
AcDbCircle
 10
-158.993990781557
 20
0.0000054726879165
 30
0.0
 40
9.999999999999991
100
AcDbArc
 50
90.0
 51
270.0
  0
LINE
  5
12D
330
1F
100
AcDbEntity
  8
MOTORFRAMETOP$LASERCUT
100
AcDbLine
 10
-158.993990781557
 20
-9.99999452731209
 30
0.0
 11
-152.993990781557
 21
-9.999994527312092
 31
0.0
  0
ARC
  5
12E
330
1F
100
AcDbEntity
  8
MOTORFRAMETOP$LASERCUT
100
AcDbCircle
 10
-192.793990386527
 20
0.0
 30
0.0
 40
75.62216633990806
100
AcDbArc
 50
330.2717519402435
 51
29.72818037240847
  0
LINE
  5
12F
330
1F
100
AcDbEntity
  8
MOTORFRAMETOP$LASERCUT
100
AcDbLine
 10
-127.1246295614506
 20
37.49996121020195
 30
0.0
 11
-258.4633512116033
 21
37.49996121020211
 31
0.0
  0
ARC
  5
130
330
1F
100
AcDbEntity
  8
MOTORFRAMETOP$LASERCUT
100
AcDbCircle
 10
-192.7939903865272
 20
0.0000000000000071
 30
0.0
 40
75.62216633990784
100
AcDbArc
 50
150.2718196275913
 51
209.728248059756
  0
LINE
  5
131
330
1F
100
AcDbEntity
  8
MOTORFRAMETOP$LASERCUT
100
AcDbLine
 10
-258.463306910338
 20
-37.50003878979653
 30
0.0
 11
-127.1246738627164
 21
-37.50003878979722
 31
0.0
  0
CIRCLE
  5
132
330
1F
100
AcDbEntity
  8
MOTORFRAMETOP$LASERCUT
100
AcDbCircle
 10
-192.793990386525
 20
0.0000000000057554
 30
0.0
 40
10.5
  0
ARC
  5
133
330
1F
100
AcDbEntity
  8
MOTORFRAMETOP$LASERCUT
100
AcDbCircle
 10
-169.4939633577929
 20
-15.50002696692485
 30
0.0
 40
1.499978765058053
100
AcDbArc
 50
270.0
 51
90.0
  0
LINE
  5
134
330
1F
100
AcDbEntity
  8
MOTORFRAMETOP$LASERCUT
100
AcDbLine
 10
-169.4939633577929
 20
-14.00004820186681
 30
0.0
 11
-173.4939633577929
 21
-14.00004820186681
 31
0.0
  0
ARC
  5
135
330
1F
100
AcDbEntity
  8
MOTORFRAMETOP$LASERCUT
100
AcDbCircle
 10
-173.4939633577929
 20
-15.50002696692488
 30
0.0
 40
1.499978765058069
100
AcDbArc
 50
89.99999999999892
 51
270.0
  0
LINE
  5
136
330
1F
100
AcDbEntity
  8
MOTORFRAMETOP$LASERCUT
100
AcDbLine
 10
-173.4939633577929
 20
-17.0000057319829
 30
0.0
 11
-169.4939633577929
 21
-17.0000057319829
 31
0.0
  0
ARC
  5
137
330
1F
100
AcDbEntity
  8
MOTORFRAMETOP$LASERCUT
100
AcDbCircle
 10
-169.4939749736815
 20
15.49998962194314
 30
0.0
 40
1.499978765058056
100
AcDbArc
 50
269.9999999999989
 51
90.0000000000011
  0
LINE
  5
138
330
1F
100
AcDbEntity
  8
MOTORFRAMETOP$LASERCUT
100
AcDbLine
 10
-169.4939749736816
 20
16.99996838700119
 30
0.0
 11
-173.4939749736816
 21
16.99996838700118
 31
0.0
  0
ARC
  5
139
330
1F
100
AcDbEntity
  8
MOTORFRAMETOP$LASERCUT
100
AcDbCircle
 10
-173.4939749736816
 20
15.49998962194314
 30
0.0
 40
1.499978765058039
100
AcDbArc
 50
90.0
 51
270.0
  0
LINE
  5
13A
330
1F
100
AcDbEntity
  8
MOTORFRAMETOP$LASERCUT
100
AcDbLine
 10
-173.4939749736816
 20
14.00001085688509
 30
0.0
 11
-169.4939749736816
 21
14.00001085688509
 31
0.0
  0
ARC
  5
13B
330
1F
100
AcDbEntity
  8
MOTORFRAMETOP$LASERCUT
100
AcDbCircle
 10
-138.4939876670277
 20
15.50001477935186
 30
0.0
 40
1.499978765058042
100
AcDbArc
 50
270.0
 51
90.0
  0
LINE
  5
13C
330
1F
100
AcDbEntity
  8
MOTORFRAMETOP$LASERCUT
100
AcDbLine
 10
-138.4939876670277
 20
16.99999354440991
 30
0.0
 11
-142.4939876670277
 21
16.99999354440991
 31
0.0
  0
ARC
  5
13D
330
1F
100
AcDbEntity
  8
MOTORFRAMETOP$LASERCUT
100
AcDbCircle
 10
-142.4939876670277
 20
15.50001477935188
 30
0.0
 40
1.499978765058032
100
AcDbArc
 50
89.99999999999892
 51
270.0
  0
LINE
  5
13E
330
1F
100
AcDbEntity
  8
MOTORFRAMETOP$LASERCUT
100
AcDbLine
 10
-142.4939876670277
 20
14.00003601429382
 30
0.0
 11
-138.4939876670277
 21
14.00003601429382
 31
0.0
  0
ARC
  5
13F
330
1F
100
AcDbEntity
  8
MOTORFRAMETOP$LASERCUT
100
AcDbCircle
 10
-138.4941332646363
 20
-15.49996695734657
 30
0.0
 40
1.499978765058021
100
AcDbArc
 50
270.0000000000011
 51
89.99999999999892
  0
LINE
  5
140
330
1F
100
AcDbEntity
  8
MOTORFRAMETOP$LASERCUT
100
AcDbLine
 10
-138.4941332646363
 20
-13.99998819228849
 30
0.0
 11
-142.4941332646363
 21
-13.9999881922885
 31
0.0
  0
ARC
  5
141
330
1F
100
AcDbEntity
  8
MOTORFRAMETOP$LASERCUT
100
AcDbCircle
 10
-142.4941332646363
 20
-15.49996695734655
 30
0.0
 40
1.499978765058049
100
AcDbArc
 50
89.99999999999784
 51
270.0000000000021
  0
LINE
  5
142
330
1F
100
AcDbEntity
  8
MOTORFRAMETOP$LASERCUT
100
AcDbLine
 10
-142.4941332646363
 20
-16.99994572240459
 30
0.0
 11
-138.4941332646363
 21
-16.99994572240459
 31
0.0
  0
ENDSEC
  0
SECTION
  2
OBJECTS
  0
DICTIONARY
  5
C
330
0
100
AcDbDictionary
  3
ACAD_GROUP
350
D
  3
ACAD_LAYOUT
350
1A
  3
ACAD_MATERIAL
350
43
  3
ACAD_MLEADERSTYLE
350
6B
  3
ACAD_MLINESTYLE
350
17
  3
ACAD_PLOTSETTINGS
350
19
  3
ACAD_SCALELIST
350
47
  3
ACAD_VISUALSTYLE
350
2A
  3
ACDBHEADERROUNDTRIPXREC
350
143
  3
ACDBVARIABLEDICTIONARY
350
164
  0
DICTIONARY
  5
16B
330
8
100
AcDbDictionary
280
     1
  3
ACAD_XREC_ROUNDTRIP
360
16C
  0
DICTIONARY
  5
D
102
{ACAD_REACTORS
330
C
102
}
330
C
100
AcDbDictionary
  0
DICTIONARY
  5
1A
102
{ACAD_REACTORS
330
C
102
}
330
C
100
AcDbDictionary
  0
DICTIONARY
  5
43
102
{ACAD_REACTORS
330
C
102
}
330
C
100
AcDbDictionary
  3
BYBLOCK
350
45
  3
BYLAYER
350
44
  3
GLOBAL
350
46
  0
DICTIONARY
  5
6B
102
{ACAD_REACTORS
330
C
102
}
330
C
100
AcDbDictionary
  3
STANDARD
350
6C
  0
DICTIONARY
  5
17
102
{ACAD_REACTORS
330
C
102
}
330
C
100
AcDbDictionary
  3
STANDARD
350
18
  0
DICTIONARY
  5
19
102
{ACAD_REACTORS
330
C
102
}
330
C
100
AcDbDictionary
  0
DICTIONARY
  5
47
102
{ACAD_REACTORS
330
C
102
}
330
C
100
AcDbDictionary
  3
A0
350
48
  3
A1
350
49
  3
A2
350
4A
  3
A3
350
4B
  3
A4
350
4C
  3
A5
350
4D
  3
A6
350
4E
  3
A7
350
4F
  3
A8
350
50
  3
A9
350
51
  3
B0
350
52
  3
B1
350
53
  3
B2
350
54
  3
B3
350
55
  3
B4
350
56
  3
B5
350
57
  3
B6
350
58
  3
B7
350
59
  3
B8
350
5A
  3
B9
350
5B
  3
C0
350
5C
  3
C1
350
5D
  3
C2
350
5E
  3
C3
350
5F
  3
C4
350
60
  3
C5
350
61
  3
C6
350
62
  3
C7
350
63
  3
C8
350
64
  3
C9
350
65
  3
D0
350
66
  3
D1
350
67
  3
D2
350
68
  0
DICTIONARY
  5
2A
102
{ACAD_REACTORS
330
C
102
}
330
C
100
AcDbDictionary
  3
2DWIREFRAME
350
2F
  3
BASIC
350
32
  3
BRIGHTEN
350
36
  3
COLORCHANGE
350
3A
  3
CONCEPTUAL
350
34
  3
DIM
350
35
  3
EDGECOLOROFF
350
3D
  3
FACEPATTERN
350
39
  3
FLAT
350
2B
  3
FLATWITHEDGES
350
2C
  3
GOURAUD
350
2D
  3
GOURAUDWITHEDGES
350
2E
  3
HIDDEN
350
31
  3
JITTEROFF
350
3B
  3
LINEPATTERN
350
38
  3
OVERHANGOFF
350
3C
  3
REALISTIC
350
33
  3
SHADED
350
42
  3
SHADED_WITH_EDGES
350
41
  3
SHADES_OF_GRAY
350
3E
  3
SKETCHY
350
3F
  3
THICKEN
350
37
  3
WIREFRAME
350
30
  3
X-RAY
350
40
  0
DICTIONARY
  5
143
102
{ACAD_REACTORS
330
C
102
}
330
C
100
AcDbDictionary
  3
CEPSNID
350
14D
  3
CEPSNTYPE
350
14C
  3
DIMSTYLEDATA
350
163
  3
FINGERPRINTGUID
350
14E
  3
HYPERLINKBASE
350
146
  3
INSUNITS
350
14B
  3
LAYOUTDICT
350
148
  3
LWETCUNION
350
14A
  3
PLOTSETDICT
350
149
  3
PSVPSCALE
350
150
  3
PUCSBASE
350
153
  3
PUCSORGBACK
350
159
  3
PUCSORGBOTTOM
350
155
  3
PUCSORGFRONT
350
158
  3
PUCSORGLEFT
350
156
  3
PUCSORGRIGHT
350
157
  3
PUCSORGTOP
350
154
  3
PUCSORTHOREF
350
151
  3
PUCSORTHOVIEW
350
152
  3
STYLESHEET
350
147
  3
TSTACKALIGN
350
144
  3
TSTACKSIZE
350
145
  3
UCSBASE
350
15C
  3
UCSORGBACK
350
162
  3
UCSORGBOTTOM
350
15E
  3
UCSORGFRONT
350
161
  3
UCSORGLEFT
350
15F
  3
UCSORGRIGHT
350
160
  3
UCSORGTOP
350
15D
  3
UCSORTHOREF
350
15A
  3
UCSORTHOVIEW
350
15B
  3
VERSIONGUID
350
14F
  0
DICTIONARY
  5
164
102
{ACAD_REACTORS
330
C
102
}
330
C
100
AcDbDictionary
  3
CANNOSCALE
350
16D
  3
CMLEADERSTYLE
350
166
  3
CTABLESTYLE
350
165
  3
DIMASSOC
350
169
  3
HIDETEXT
350
16A
  3
MSLTSCALE
350
16E
  0
XRECORD
  5
16C
102
{ACAD_REACTORS
330
16B
102
}
330
16B
100
AcDbXrecord
102
VTR_0.000_0.000_1.000_1.000_GRIDDISPLAY
 70
     3
102
VTR_0.000_0.000_1.000_1.000_GRIDMAJOR
 70
     5
102
VTR_0.000_0.000_1.000_1.000_DEFAULTLIGHTING
280
     1
102
VTR_0.000_0.000_1.000_1.000_DEFAULTLIGHTINGTYPE
 70
     1
102
VTR_0.000_0.000_1.000_1.000_BRIGHTNESS
141
0.0
102
VTR_0.000_0.000_1.000_1.000_CONTRAST
142
0.0
  0
MATERIAL
  5
45
102
{ACAD_REACTORS
330
43
102
}
102
{ACAD_XDICTIONARY
360
171
102
}
330
43
100
AcDbMaterial
  1
BYBLOCK
  0
MATERIAL
  5
44
102
{ACAD_REACTORS
330
43
102
}
102
{ACAD_XDICTIONARY
360
16F
102
}
330
43
100
AcDbMaterial
  1
BYLAYER
  0
MATERIAL
  5
46
102
{ACAD_REACTORS
330
43
102
}
102
{ACAD_XDICTIONARY
360
173
102
}
330
43
100
AcDbMaterial
  1
GLOBAL
  0
ACAD_PROXY_OBJECT
  5
6C
102
{ACAD_REACTORS
330
6B
102
}
330
6B
100
AcDbProxyObject
 90
      499
 91
      505
 93
      610
310
40901902A4063FBFFFFFE056BD1B81E855B9FC0AD7A3703D0AD73F4214DD185B99185C9900AD7A3703D0AC73F90141901A02B5E8DC0F42B1CFC02B5E8DC0F42B1CFE5764000000000000300FC0
340
14
340
0
340
11
340
0
 94
        0
1001
ACAD_MLEADERVER
1070
     2
  0
MLINESTYLE
  5
18
102
{ACAD_REACTORS
330
17
102
}
330
17
100
AcDbMlineStyle
  2
Standard
 70
     0
  3

 62
   256
 51
90.0
 52
90.0
 71
     2
 49
0.5
 62
   256
  6
BYLAYER
 49
-0.5
 62
   256
  6
BYLAYER
  0
ACAD_PROXY_OBJECT
  5
48
102
{ACAD_REACTORS
330
47
102
}
330
47
100
AcDbProxyObject
 90
      499
 91
      503
 93
       41
310
903313A31580
  0
ACAD_PROXY_OBJECT
  5
49
102
{ACAD_REACTORS
330
47
102
}
330
47
100
AcDbProxyObject
 90
      499
 91
      503
 93
      105
310
903313A324000000000000004000
  0
ACAD_PROXY_OBJECT
  5
4A
102
{ACAD_REACTORS
330
47
102
}
330
47
100
AcDbProxyObject
 90
      499
 91
      503
 93
      105
310
903313A344000000000000104000
  0
ACAD_PROXY_OBJECT
  5
4B
102
{ACAD_REACTORS
330
47
102
}
330
47
100
AcDbProxyObject
 90
      499
 91
      503
 93
      105
310
903313A354000000000000144000
  0
ACAD_PROXY_OBJECT
  5
4C
102
{ACAD_REACTORS
330
47
102
}
330
47
100
AcDbProxyObject
 90
      499
 91
      503
 93
      105
310
903313A384000000000000204000
  0
ACAD_PROXY_OBJECT
  5
4D
102
{ACAD_REACTORS
330
47
102
}
330
47
100
AcDbProxyObject
 90
      499
 91
      503
 93
      113
310
904313A31304000000000000244000
  0
ACAD_PROXY_OBJECT
  5
4E
102
{ACAD_REACTORS
330
47
102
}
330
47
100
AcDbProxyObject
 90
      499
 91
      503
 93
      113
310
904313A31364000000000000304000
  0
ACAD_PROXY_OBJECT
  5
4F
102
{ACAD_REACTORS
330
47
102
}
330
47
100
AcDbProxyObject
 90
      499
 91
      503
 93
      113
310
904313A32304000000000000344000
  0
ACAD_PROXY_OBJECT
  5
50
102
{ACAD_REACTORS
330
47
102
}
330
47
100
AcDbProxyObject
 90
      499
 91
      503
 93
      113
310
904313A333040000000000003E4000
  0
ACAD_PROXY_OBJECT
  5
51
102
{ACAD_REACTORS
330
47
102
}
330
47
100
AcDbProxyObject
 90
      499
 91
      503
 93
      113
310
904313A34304000000000000444000
  0
ACAD_PROXY_OBJECT
  5
52
102
{ACAD_REACTORS
330
47
102
}
330
47
100
AcDbProxyObject
 90
      499
 91
      503
 93
      113
310
904313A35304000000000000494000
  0
ACAD_PROXY_OBJECT
  5
53
102
{ACAD_REACTORS
330
47
102
}
330
47
100
AcDbProxyObject
 90
      499
 91
      503
 93
      121
310
905313A3130304000000000000594000
  0
ACAD_PROXY_OBJECT
  5
54
102
{ACAD_REACTORS
330
47
102
}
330
47
100
AcDbProxyObject
 90
      499
 91
      503
 93
      105
310
903323A310000000000000010100
  0
ACAD_PROXY_OBJECT
  5
55
102
{ACAD_REACTORS
330
47
102
}
330
47
100
AcDbProxyObject
 90
      499
 91
      503
 93
      105
310
903343A310000000000000410100
  0
ACAD_PROXY_OBJECT
  5
56
102
{ACAD_REACTORS
330
47
102
}
330
47
100
AcDbProxyObject
 90
      499
 91
      503
 93
      105
310
903383A310000000000000810100
  0
ACAD_PROXY_OBJECT
  5
57
102
{ACAD_REACTORS
330
47
102
}
330
47
100
AcDbProxyObject
 90
      499
 91
      503
 93
      113
310
90431303A310000000000000910100
  0
ACAD_PROXY_OBJECT
  5
58
102
{ACAD_REACTORS
330
47
102
}
330
47
100
AcDbProxyObject
 90
      499
 91
      503
 93
      121
310
9053130303A310000000000001650100
  0
ACAD_PROXY_OBJECT
  5
59
102
{ACAD_REACTORS
330
47
102
}
330
47
100
AcDbProxyObject
 90
      499
 91
      503
 93
      257
310
90E312F31323822203D2031272D3022000000000000200FC000000000000284000
  0
ACAD_PROXY_OBJECT
  5
5A
102
{ACAD_REACTORS
330
47
102
}
330
47
100
AcDbProxyObject
 90
      499
 91
      503
 93
      249
310
90D312F363422203D2031272D3022000000000000240FC000000000000284000
  0
ACAD_PROXY_OBJECT
  5
5B
102
{ACAD_REACTORS
330
47
102
}
330
47
100
AcDbProxyObject
 90
      499
 91
      503
 93
      249
310
90D312F333222203D2031272D3022000000000000280FC000000000000284000
  0
ACAD_PROXY_OBJECT
  5
5C
102
{ACAD_REACTORS
330
47
102
}
330
47
100
AcDbProxyObject
 90
      499
 91
      503
 93
      249
310
90D312F313622203D2031272D30220000000000002C0FC000000000000284000
  0
ACAD_PROXY_OBJECT
  5
5D
102
{ACAD_REACTORS
330
47
102
}
330
47
100
AcDbProxyObject
 90
      499
 91
      503
 93
      249
310
90D332F333222203D2031272D30220000000000002E0FC000000000000284000
  0
ACAD_PROXY_OBJECT
  5
5E
102
{ACAD_REACTORS
330
47
102
}
330
47
100
AcDbProxyObject
 90
      499
 91
      503
 93
      241
310
90C312F3822203D2031272D3022000000000000300FC000000000000284000
  0
ACAD_PROXY_OBJECT
  5
5F
102
{ACAD_REACTORS
330
47
102
}
330
47
100
AcDbProxyObject
 90
      499
 91
      503
 93
      249
310
90D332F313622203D2031272D3022000000000000320FC000000000000284000
  0
ACAD_PROXY_OBJECT
  5
60
102
{ACAD_REACTORS
330
47
102
}
330
47
100
AcDbProxyObject
 90
      499
 91
      503
 93
      241
310
90C312F3422203D2031272D3022000000000000340FC000000000000284000
  0
ACAD_PROXY_OBJECT
  5
61
102
{ACAD_REACTORS
330
47
102
}
330
47
100
AcDbProxyObject
 90
      499
 91
      503
 93
      241
310
90C332F3822203D2031272D3022000000000000360FC000000000000284000
  0
ACAD_PROXY_OBJECT
  5
62
102
{ACAD_REACTORS
330
47
102
}
330
47
100
AcDbProxyObject
 90
      499
 91
      503
 93
      241
310
90C312F3222203D2031272D3022000000000000380FC000000000000284000
  0
ACAD_PROXY_OBJECT
  5
63
102
{ACAD_REACTORS
330
47
102
}
330
47
100
AcDbProxyObject
 90
      499
 91
      503
 93
      241
310
90C332F3422203D2031272D30220000000000003A0FC000000000000284000
  0
ACAD_PROXY_OBJECT
  5
64
102
{ACAD_REACTORS
330
47
102
}
330
47
100
AcDbProxyObject
 90
      499
 91
      503
 93
      161
310
90A3122203D2031272D30224000000000000284000
  0
ACAD_PROXY_OBJECT
  5
65
102
{ACAD_REACTORS
330
47
102
}
330
47
100
AcDbProxyObject
 90
      499
 91
      503
 93
      257
310
90E312D312F3222203D2031272D30220000000000003E0FC000000000000284000
  0
ACAD_PROXY_OBJECT
  5
66
102
{ACAD_REACTORS
330
47
102
}
330
47
100
AcDbProxyObject
 90
      499
 91
      503
 93
      225
310
90A3322203D2031272D302200000000000002100000000000000284000
  0
ACAD_PROXY_OBJECT
  5
67
102
{ACAD_REACTORS
330
47
102
}
330
47
100
AcDbProxyObject
 90
      499
 91
      503
 93
      225
310
90A3622203D2031272D302200000000000006100000000000000284000
  0
ACAD_PROXY_OBJECT
  5
68
102
{ACAD_REACTORS
330
47
102
}
330
47
100
AcDbProxyObject
 90
      499
 91
      503
 93
      249
310
90D31272D3022203D2031272D30220000000000000A100000000000000284000
  0
ACAD_PROXY_OBJECT
  5
2F
102
{ACAD_REACTORS
330
2A
102
}
330
2A
100
AcDbProxyObject
 90
      499
 91
      501
 93
      436
310
42CC9915DA5C99599C985B595049028333333333333E33F0000000000000F90107901411070040501600405405064090741402480A0340
1001
ACAD
1000
AcDbSavedByObjectVersion
1070
     0
  0
ACAD_PROXY_OBJECT
  5
32
102
{ACAD_REACTORS
330
2A
102
}
330
2A
100
AcDbProxyObject
 90
      499
 91
      501
 93
      388
310
4150985CDA58D07406404333333333333E33F0000000000000F90107A41107004050150841D405064090741402480A0350
1001
ACAD
1000
AcDbSavedByObjectVersion
1070
     0
  0
ACAD_PROXY_OBJECT
  5
36
102
{ACAD_REACTORS
330
2A
102
}
330
2A
100
AcDbProxyObject
 90
      499
 91
      501
 93
      428
310
42109C9A59DA1D195B90C409028333333333333E33F0000000000000F9010790141107004050150841D405064090741402480A029950
1001
ACAD
1000
AcDbSavedByObjectVersion
1070
     0
  0
ACAD_PROXY_OBJECT
  5
3A
102
{ACAD_REACTORS
330
2A
102
}
330
2A
100
AcDbProxyObject
 90
      499
 91
      501
 93
      452
310
42D0DBDB1BDC90DA185B99D95104090240C333333333333E33F0000000000000F90108901411070040501508421405064090741402480A0350
1001
ACAD
1000
AcDbSavedByObjectVersion
1070
     0
  0
ACAD_PROXY_OBJECT
  5
34
102
{ACAD_REACTORS
330
2A
102
}
330
2A
100
AcDbProxyObject
 90
      499
 91
      501
 93
      500
310
4290DBDB98D95C1D1D585B10940D028333333333333E33F0000000000000F90107902409070040501000000000018199010841D405064090740C02480A0340
1001
ACAD
1000
AcDbSavedByObjectVersion
1070
     0
  0
ACAD_PROXY_OBJECT
  5
35
102
{ACAD_REACTORS
330
2A
102
}
330
2A
100
AcDbProxyObject
 90
      499
 91
      501
 93
      412
310
40D11A5B50B409028333333333333E33F0000000000000F9010790141107004050150841D405064090741402480A02677FFFFFD0
1001
ACAD
1000
AcDbSavedByObjectVersion
1070
     0
  0
ACAD_PROXY_OBJECT
  5
3D
102
{ACAD_REACTORS
330
2A
102
}
330
2A
100
AcDbProxyObject
 90
      499
 91
      501
 93
      452
310
43115919D950DBDB1BDC93D999916409028333333333333E33F0000000000000F9010790141107004050150841D405064090741402480A0350
1001
ACAD
1000
AcDbSavedByObjectVersion
1070
     0
  0
ACAD_PROXY_OBJECT
  5
39
102
{ACAD_REACTORS
330
2A
102
}
330
2A
100
AcDbProxyObject
 90
      499
 91
      501
 93
      444
310
42D19858D95C185D1D195C9B90F409028333333333333E33F0000000000000F9010790141107004050150841D405064090741402480A0350
1001
ACAD
1000
AcDbSavedByObjectVersion
1070
     0
  0
ACAD_PROXY_OBJECT
  5
2B
102
{ACAD_REACTORS
330
2A
102
}
330
2A
100
AcDbProxyObject
 90
      499
 91
      501
 93
      380
310
41119B185D240901404333333333333E33F0000000000000F9010740A907004050150841D405064090741402480A1B50
1001
ACAD
1000
AcDbSavedByObjectVersion
1070
     0
  0
ACAD_PROXY_OBJECT
  5
2C
102
{ACAD_REACTORS
330
2A
102
}
330
2A
100
AcDbProxyObject
 90
      499
 91
      501
 93
      468
310
43519B185D15DA5D1A115919D95CD0140901404333333333333E33F0000000000000F90107409019070040501600405405064090741402480A1B50
1001
ACAD
1000
AcDbSavedByObjectVersion
1070
     0
  0
ACAD_PROXY_OBJECT
  5
2D
102
{ACAD_REACTORS
330
2A
102
}
330
2A
100
AcDbProxyObject
 90
      499
 91
      501
 93
      404
310
41D1DBDD5C985D5910240902404333333333333E33F0000000000000F9010740A9070040501641D405064090741402480A1B50
1001
ACAD
1000
AcDbSavedByObjectVersion
1070
     0
  0
ACAD_PROXY_OBJECT
  5
2E
102
{ACAD_REACTORS
330
2A
102
}
330
2A
100
AcDbProxyObject
 90
      499
 91
      501
 93
      492
310
4411DBDD5C985D5915DA5D1A115919D95CD0340902404333333333333E33F0000000000000F90107409019070040501600405405064090741402480A1B50
1001
ACAD
1000
AcDbSavedByObjectVersion
1070
     0
  0
ACAD_PROXY_OBJECT
  5
31
102
{ACAD_REACTORS
330
2A
102
}
330
2A
100
AcDbProxyObject
 90
      499
 91
      501
 93
      476
310
41921A5919195B90640502408333333333333E33F0000000000000F901079024090700405020000000000001110200405405064090740C02480A0340
1001
ACAD
1000
AcDbSavedByObjectVersion
1070
     0
  0
ACAD_PROXY_OBJECT
  5
3B
102
{ACAD_REACTORS
330
2A
102
}
330
2A
100
AcDbProxyObject
 90
      499
 91
      501
 93
      428
310
42529A5D1D195C93D999914409028333333333333E33F0000000000000F9010790141107004050150A41D405064090741402480A0350
1001
ACAD
1000
AcDbSavedByObjectVersion
1070
     0
  0
ACAD_PROXY_OBJECT
  5
38
102
{ACAD_REACTORS
330
2A
102
}
330
2A
100
AcDbProxyObject
 90
      499
 91
      501
 93
      444
310
42D31A5B995C185D1D195C9B90E409028333333333333E33F0000000000000F9010790141107004050750841D405064090741402483A0350
1001
ACAD
1000
AcDbSavedByObjectVersion
1070
     0
  0
ACAD_PROXY_OBJECT
  5
3C
102
{ACAD_REACTORS
330
2A
102
}
330
2A
100
AcDbProxyObject
 90
      499
 91
      501
 93
      444
310
42D3DD995C9A185B99D3D999915409028333333333333E33F0000000000000F9010790141107004050150941D405064090741402480A0350
1001
ACAD
1000
AcDbSavedByObjectVersion
1070
     0
  0
ACAD_PROXY_OBJECT
  5
33
102
{ACAD_REACTORS
330
2A
102
}
330
2A
100
AcDbProxyObject
 90
      499
 91
      501
 93
      428
310
425499585B1A5CDD1A58D08409038333333333333E33F0000000000000F9010740A907004050150800405405064090740C02480A1B40
1001
ACAD
1000
AcDbSavedByObjectVersion
1070
     0
  0
ACAD_PROXY_OBJECT
  5
42
102
{ACAD_REACTORS
330
2A
102
}
330
2A
100
AcDbProxyObject
 90
      499
 91
      501
 93
      420
310
4194DA1859195911B40902404333333333333E33F0000000000000F9010740A41107004050150800405405064090840C02480A0B40
1001
ACAD
1000
AcDbSavedByObjectVersion
1070
     0
  0
ACAD_PROXY_OBJECT
  5
41
102
{ACAD_REACTORS
330
2A
102
}
330
2A
100
AcDbProxyObject
 90
      499
 91
      501
 93
      516
310
4454DA18591959081DDA5D1A08195919D95CD1A40902404333333333333E33F0000000000000F901074090142907004050250800405405064090740C02480A0B40
1001
ACAD
1000
AcDbSavedByObjectVersion
1070
     0
  0
ACAD_PROXY_OBJECT
  5
3E
102
{ACAD_REACTORS
330
2A
102
}
330
2A
100
AcDbProxyObject
 90
      499
 91
      501
 93
      532
310
4394DA1859195CC81BD98811DC985E5174090240C333333333333E33F0000000000000F901079024090741D01000000000000111010841D405064090740C02480A0340
1001
ACAD
1000
AcDbSavedByObjectVersion
1070
     0
  0
ACAD_PROXY_OBJECT
  5
3F
102
{ACAD_REACTORS
330
2A
102
}
330
2A
100
AcDbProxyObject
 90
      499
 91
      501
 93
      476
310
41D4DAD95D18DA1E51840502408333333333333E33F0000000000000F901079024090741D01000000000000111010B41D405064090741802480A0340
1001
ACAD
1000
AcDbSavedByObjectVersion
1070
     0
  0
ACAD_PROXY_OBJECT
  5
37
102
{ACAD_REACTORS
330
2A
102
}
330
2A
100
AcDbProxyObject
 90
      499
 91
      501
 93
      412
310
41D51A1A58DAD95B90D409028333333333333E33F0000000000000F9010790141107004050150C41D405064090741402480A0350
1001
ACAD
1000
AcDbSavedByObjectVersion
1070
     0
  0
ACAD_PROXY_OBJECT
  5
30
102
{ACAD_REACTORS
330
2A
102
}
330
2A
100
AcDbProxyObject
 90
      499
 91
      501
 93
      420
310
4255DA5C99599C985B595059028333333333333E33F0000000000000F90107901411070040501600405405064090740C02480A0340
1001
ACAD
1000
AcDbSavedByObjectVersion
1070
     0
  0
ACAD_PROXY_OBJECT
  5
40
102
{ACAD_REACTORS
330
2A
102
}
330
2A
100
AcDbProxyObject
 90
      499
 91
      501
 93
      404
310
41560B54985E51940902404000000000000E03F0000000000000F9010740501907004050150841D405064090740C02480A1B40
1001
ACAD
1000
AcDbSavedByObjectVersion
1070
     0
  0
XRECORD
  5
14D
102
{ACAD_REACTORS
330
143
102
}
330
143
100
AcDbXrecord
340
0
  0
XRECORD
  5
14C
102
{ACAD_REACTORS
330
143
102
}
330
143
100
AcDbXrecord
 90
        0
  0
XRECORD
  5
163
102
{ACAD_REACTORS
330
143
102
}
330
143
100
AcDbXrecord
1000
DSTYLE
1002
{
1070
   279
 70
     2
1070
   340
340
11
1002
}
  0
XRECORD
  5
14E
102
{ACAD_REACTORS
330
143
102
}
330
143
100
AcDbXrecord
  1
{4784B65B-4494-4D21-92BC-717605C30E56}
  0
XRECORD
  5
146
102
{ACAD_REACTORS
330
143
102
}
330
143
100
AcDbXrecord
  1

  0
XRECORD
  5
14B
102
{ACAD_REACTORS
330
143
102
}
330
143
100
AcDbXrecord
 90
        4
  0
XRECORD
  5
148
102
{ACAD_REACTORS
330
143
102
}
330
143
100
AcDbXrecord
340
1A
  0
XRECORD
  5
14A
102
{ACAD_REACTORS
330
143
102
}
330
143
100
AcDbXrecord
 90
    10781
  0
XRECORD
  5
149
102
{ACAD_REACTORS
330
143
102
}
330
143
100
AcDbXrecord
340
19
  0
XRECORD
  5
150
102
{ACAD_REACTORS
330
143
102
}
330
143
100
AcDbXrecord
 40
0.0
  0
XRECORD
  5
153
102
{ACAD_REACTORS
330
143
102
}
330
143
100
AcDbXrecord
340
0
  0
XRECORD
  5
159
102
{ACAD_REACTORS
330
143
102
}
330
143
100
AcDbXrecord
 10
0.0
 20
0.0
 30
0.0
  0
XRECORD
  5
155
102
{ACAD_REACTORS
330
143
102
}
330
143
100
AcDbXrecord
 10
0.0
 20
0.0
 30
0.0
  0
XRECORD
  5
158
102
{ACAD_REACTORS
330
143
102
}
330
143
100
AcDbXrecord
 10
0.0
 20
0.0
 30
0.0
  0
XRECORD
  5
156
102
{ACAD_REACTORS
330
143
102
}
330
143
100
AcDbXrecord
 10
0.0
 20
0.0
 30
0.0
  0
XRECORD
  5
157
102
{ACAD_REACTORS
330
143
102
}
330
143
100
AcDbXrecord
 10
0.0
 20
0.0
 30
0.0
  0
XRECORD
  5
154
102
{ACAD_REACTORS
330
143
102
}
330
143
100
AcDbXrecord
 10
0.0
 20
0.0
 30
0.0
  0
XRECORD
  5
151
102
{ACAD_REACTORS
330
143
102
}
330
143
100
AcDbXrecord
340
0
  0
XRECORD
  5
152
102
{ACAD_REACTORS
330
143
102
}
330
143
100
AcDbXrecord
 70
     0
  0
XRECORD
  5
147
102
{ACAD_REACTORS
330
143
102
}
330
143
100
AcDbXrecord
  1

  0
XRECORD
  5
144
102
{ACAD_REACTORS
330
143
102
}
330
143
100
AcDbXrecord
 90
        1
  0
XRECORD
  5
145
102
{ACAD_REACTORS
330
143
102
}
330
143
100
AcDbXrecord
 90
       70
  0
XRECORD
  5
15C
102
{ACAD_REACTORS
330
143
102
}
330
143
100
AcDbXrecord
340
0
  0
XRECORD
  5
162
102
{ACAD_REACTORS
330
143
102
}
330
143
100
AcDbXrecord
 10
0.0
 20
0.0
 30
0.0
  0
XRECORD
  5
15E
102
{ACAD_REACTORS
330
143
102
}
330
143
100
AcDbXrecord
 10
0.0
 20
0.0
 30
0.0
  0
XRECORD
  5
161
102
{ACAD_REACTORS
330
143
102
}
330
143
100
AcDbXrecord
 10
0.0
 20
0.0
 30
0.0
  0
XRECORD
  5
15F
102
{ACAD_REACTORS
330
143
102
}
330
143
100
AcDbXrecord
 10
0.0
 20
0.0
 30
0.0
  0
XRECORD
  5
160
102
{ACAD_REACTORS
330
143
102
}
330
143
100
AcDbXrecord
 10
0.0
 20
0.0
 30
0.0
  0
XRECORD
  5
15D
102
{ACAD_REACTORS
330
143
102
}
330
143
100
AcDbXrecord
 10
0.0
 20
0.0
 30
0.0
  0
XRECORD
  5
15A
102
{ACAD_REACTORS
330
143
102
}
330
143
100
AcDbXrecord
340
0
  0
XRECORD
  5
15B
102
{ACAD_REACTORS
330
143
102
}
330
143
100
AcDbXrecord
 70
     0
  0
XRECORD
  5
14F
102
{ACAD_REACTORS
330
143
102
}
330
143
100
AcDbXrecord
  1
{FAEB1C32-E019-11D5-929B-00C0DF256EC4}
  0
DICTIONARYVAR
  5
16D
102
{ACAD_REACTORS
330
164
102
}
330
164
100
DictionaryVariables
280
     0
  1
1:1
  0
DICTIONARYVAR
  5
166
102
{ACAD_REACTORS
330
164
102
}
330
164
100
DictionaryVariables
280
     0
  1
Standard
  0
DICTIONARYVAR
  5
165
102
{ACAD_REACTORS
330
164
102
}
330
164
100
DictionaryVariables
280
     0
  1
Standard
  0
DICTIONARYVAR
  5
169
102
{ACAD_REACTORS
330
164
102
}
330
164
100
DictionaryVariables
280
     0
  1
2
  0
DICTIONARYVAR
  5
16A
102
{ACAD_REACTORS
330
164
102
}
330
164
100
DictionaryVariables
280
     0
  1
1
  0
DICTIONARYVAR
  5
16E
102
{ACAD_REACTORS
330
164
102
}
330
164
100
DictionaryVariables
280
     0
  1
1
  0
DICTIONARY
  5
171
330
45
100
AcDbDictionary
280
     1
  3
ACAD_XREC_ROUNDTRIP
360
172
  0
DICTIONARY
  5
16F
330
44
100
AcDbDictionary
280
     1
  3
ACAD_XREC_ROUNDTRIP
360
170
  0
DICTIONARY
  5
173
330
46
100
AcDbDictionary
280
     1
  3
ACAD_XREC_ROUNDTRIP
360
174
  0
XRECORD
  5
172
102
{ACAD_REACTORS
330
171
102
}
330
171
100
AcDbXrecord
102
MATERIAL
148
0.0
149
0.0
149
0.0
 93
        0
 94
      127
282
     0
 72
     1
 77
     1
171
     1
175
     1
179
     1
273
     0
  0
XRECORD
  5
170
102
{ACAD_REACTORS
330
16F
102
}
330
16F
100
AcDbXrecord
102
MATERIAL
148
0.0
149
0.0
149
0.0
 93
        0
 94
      127
282
     0
 72
     1
 77
     1
171
     1
175
     1
179
     1
273
     0
  0
XRECORD
  5
174
102
{ACAD_REACTORS
330
173
102
}
330
173
100
AcDbXrecord
102
MATERIAL
148
0.0
149
0.0
149
0.0
 93
        0
 94
      127
282
     0
 72
     1
 77
     1
171
     1
175
     1
179
     1
273
     0
  0
ENDSEC
  0
EOF
