  0
SECTION
  2
HEADER
  9
$ACADVER
  1
AC1014
  9
$ACADMAINTVER
 70
     9
  9
$DWGCODEPAGE
  3
ANSI_1252
  9
$INSBASE
 10
0.0
 20
0.0
 30
0.0
  9
$EXTMIN
 10
-1223.8554819612
 20
359.1934271795375
 30
0.0
  9
$EXTMAX
 10
-922.4125026941723
 20
805.6888675342053
 30
0.0
  9
$LIMMIN
 10
0.0
 20
0.0
  9
$LIMMAX
 10
12.0
 20
9.0
  9
$ORTHOMODE
 70
     0
  9
$REGENMODE
 70
     1
  9
$FILLMODE
 70
     1
  9
$QTEXTMODE
 70
     0
  9
$MIRRTEXT
 70
     1
  9
$DRAGMODE
 70
     2
  9
$LTSCALE
 40
1.0
  9
$OSMODE
 70
    37
  9
$ATTMODE
 70
     1
  9
$TEXTSIZE
 40
0.2
  9
$TRACEWID
 40
0.05
  9
$TEXTSTYLE
  7
STANDARD
  9
$CLAYER
  8
0
  9
$CELTYPE
  6
BYLAYER
  9
$CECOLOR
 62
   256
  9
$CELTSCALE
 40
1.0
  9
$DELOBJ
 70
     1
  9
$DISPSILH
 70
     0
  9
$DIMSCALE
 40
1.0
  9
$DIMASZ
 40
0.18
  9
$DIMEXO
 40
0.0625
  9
$DIMDLI
 40
0.38
  9
$DIMRND
 40
0.0
  9
$DIMDLE
 40
0.0
  9
$DIMEXE
 40
0.18
  9
$DIMTP
 40
0.0
  9
$DIMTM
 40
0.0
  9
$DIMTXT
 40
0.18
  9
$DIMCEN
 40
0.09
  9
$DIMTSZ
 40
0.0
  9
$DIMTOL
 70
     0
  9
$DIMLIM
 70
     0
  9
$DIMTIH
 70
     1
  9
$DIMTOH
 70
     1
  9
$DIMSE1
 70
     0
  9
$DIMSE2
 70
     0
  9
$DIMTAD
 70
     0
  9
$DIMZIN
 70
     0
  9
$DIMBLK
  1

  9
$DIMASO
 70
     1
  9
$DIMSHO
 70
     1
  9
$DIMPOST
  1

  9
$DIMAPOST
  1

  9
$DIMALT
 70
     0
  9
$DIMALTD
 70
     2
  9
$DIMALTF
 40
25.4
  9
$DIMLFAC
 40
1.0
  9
$DIMTOFL
 70
     0
  9
$DIMTVP
 40
0.0
  9
$DIMTIX
 70
     0
  9
$DIMSOXD
 70
     0
  9
$DIMSAH
 70
     0
  9
$DIMBLK1
  1

  9
$DIMBLK2
  1

  9
$DIMSTYLE
  2
STANDARD
  9
$DIMCLRD
 70
     0
  9
$DIMCLRE
 70
     0
  9
$DIMCLRT
 70
     0
  9
$DIMTFAC
 40
1.0
  9
$DIMGAP
 40
0.09
  9
$DIMJUST
 70
     0
  9
$DIMSD1
 70
     0
  9
$DIMSD2
 70
     0
  9
$DIMTOLJ
 70
     1
  9
$DIMTZIN
 70
     0
  9
$DIMALTZ
 70
     0
  9
$DIMALTTZ
 70
     0
  9
$DIMFIT
 70
     5
  9
$DIMUPT
 70
     0
  9
$DIMUNIT
 70
     2
  9
$DIMDEC
 70
     4
  9
$DIMTDEC
 70
     4
  9
$DIMALTU
 70
     2
  9
$DIMALTTD
 70
     2
  9
$DIMTXSTY
  7
STANDARD
  9
$DIMAUNIT
 70
     0
  9
$LUNITS
 70
     2
  9
$LUPREC
 70
     3
  9
$SKETCHINC
 40
0.1
  9
$FILLETRAD
 40
0.5
  9
$AUNITS
 70
     0
  9
$AUPREC
 70
     0
  9
$MENU
  1
.
  9
$ELEVATION
 40
0.0
  9
$PELEVATION
 40
0.0
  9
$THICKNESS
 40
0.0
  9
$LIMCHECK
 70
     0
  9
$CHAMFERA
 40
0.0
  9
$CHAMFERB
 40
0.0
  9
$CHAMFERC
 40
0.0
  9
$CHAMFERD
 40
0.0
  9
$SKPOLY
 70
     0
  9
$TDCREATE
 40
2458035.598961157
  9
$TDUPDATE
 40
2458035.598961169
  9
$TDINDWG
 40
0.0000000116
  9
$TDUSRTIMER
 40
0.0000000116
  9
$USRTIMER
 70
     1
  9
$ANGBASE
 50
0.0
  9
$ANGDIR
 70
     0
  9
$PDMODE
 70
     0
  9
$PDSIZE
 40
0.0
  9
$PLINEWID
 40
0.0
  9
$COORDS
 70
     1
  9
$SPLFRAME
 70
     0
  9
$SPLINETYPE
 70
     6
  9
$SPLINESEGS
 70
     8
  9
$ATTDIA
 70
     0
  9
$ATTREQ
 70
     1
  9
$HANDLING
 70
     1
  9
$HANDSEED
  5
117
  9
$SURFTAB1
 70
     6
  9
$SURFTAB2
 70
     6
  9
$SURFTYPE
 70
     6
  9
$SURFU
 70
     6
  9
$SURFV
 70
     6
  9
$UCSNAME
  2

  9
$UCSORG
 10
0.0
 20
0.0
 30
0.0
  9
$UCSXDIR
 10
1.0
 20
0.0
 30
0.0
  9
$UCSYDIR
 10
0.0
 20
1.0
 30
0.0
  9
$PUCSNAME
  2

  9
$PUCSORG
 10
0.0
 20
0.0
 30
0.0
  9
$PUCSXDIR
 10
1.0
 20
0.0
 30
0.0
  9
$PUCSYDIR
 10
0.0
 20
1.0
 30
0.0
  9
$USERI1
 70
     0
  9
$USERI2
 70
     0
  9
$USERI3
 70
     0
  9
$USERI4
 70
     0
  9
$USERI5
 70
     0
  9
$USERR1
 40
0.0
  9
$USERR2
 40
0.0
  9
$USERR3
 40
0.0
  9
$USERR4
 40
0.0
  9
$USERR5
 40
0.0
  9
$WORLDVIEW
 70
     1
  9
$SHADEDGE
 70
     3
  9
$SHADEDIF
 70
    70
  9
$TILEMODE
 70
     1
  9
$MAXACTVP
 70
    64
  9
$PINSBASE
 10
0.0
 20
0.0
 30
0.0
  9
$PLIMCHECK
 70
     0
  9
$PEXTMIN
 10
1.000000000000000E+20
 20
1.000000000000000E+20
 30
1.000000000000000E+20
  9
$PEXTMAX
 10
-1.000000000000000E+20
 20
-1.000000000000000E+20
 30
-1.000000000000000E+20
  9
$PLIMMIN
 10
0.0
 20
0.0
  9
$PLIMMAX
 10
12.0
 20
9.0
  9
$UNITMODE
 70
     0
  9
$VISRETAIN
 70
     1
  9
$PLINEGEN
 70
     0
  9
$PSLTSCALE
 70
     1
  9
$TREEDEPTH
 70
  3020
  9
$PICKSTYLE
 70
     1
  9
$CMLSTYLE
  2
STANDARD
  9
$CMLJUST
 70
     0
  9
$CMLSCALE
 40
1.0
  9
$PROXYGRAPHICS
 70
     1
  9
$MEASUREMENT
 70
     0
  0
ENDSEC
  0
SECTION
  2
CLASSES
  0
CLASS
  1
ACDBDICTIONARYWDFLT
  2
AcDbDictionaryWithDefault
  3
ObjectDBX Classes
 90
        0
280
     0
281
     0
  0
CLASS
  1
VISUALSTYLE
  2
AcDbVisualStyle
  3
ObjectDBX Classes
 90
     4095
280
     0
281
     0
  0
CLASS
  1
MATERIAL
  2
AcDbMaterial
  3
ObjectDBX Classes
 90
     1153
280
     0
281
     0
  0
CLASS
  1
SCALE
  2
AcDbScale
  3
ObjectDBX Classes
 90
     1153
280
     0
281
     0
  0
CLASS
  1
TABLESTYLE
  2
AcDbTableStyle
  3
ObjectDBX Classes
 90
     4095
280
     0
281
     0
  0
CLASS
  1
MLEADERSTYLE
  2
AcDbMLeaderStyle
  3
ACDB_MLEADERSTYLE_CLASS
 90
     4095
280
     0
281
     0
  0
CLASS
  1
SUN
  2
AcDbSun
  3
SCENEOE
 90
     1153
280
     0
281
     0
  0
CLASS
  1
DICTIONARYVAR
  2
AcDbDictionaryVar
  3
ObjectDBX Classes
 90
        0
280
     0
281
     0
  0
CLASS
  1
XRECORD
  2
AcDbXrecord
  3
ObjectDBX Classes
 90
        0
280
     0
281
     0
  0
CLASS
  1
LWPOLYLINE
  2
AcDbPolyline
  3
ObjectDBX Classes
 90
        0
280
     0
281
     1
  0
CLASS
  1
HATCH
  2
AcDbHatch
  3
ObjectDBX Classes
 90
        0
280
     0
281
     1
  0
CLASS
  1
ACDBPLACEHOLDER
  2
AcDbPlaceHolder
  3
ObjectDBX Classes
 90
        0
280
     0
281
     0
  0
CLASS
  1
LAYOUT
  2
AcDbLayout
  3
ObjectDBX Classes
 90
        0
280
     0
281
     0
  0
ENDSEC
  0
SECTION
  2
TABLES
  0
TABLE
  2
VPORT
  5
8
102
{ACAD_XDICTIONARY
360
10C
102
}
330
0
100
AcDbSymbolTable
 70
     1
  0
VPORT
  5
29
330
8
100
AcDbSymbolTableRecord
100
AcDbViewportTableRecord
  2
*ACTIVE
 70
     0
 10
0.0
 20
0.0
 11
1.0
 21
1.0
 12
-1073.133992327686
 22
582.4411473568714
 13
0.0
 23
0.0
 14
0.5
 24
0.5
 15
0.5
 25
0.5
 16
0.0
 26
0.0
 36
1.0
 17
0.0
 27
0.0
 37
0.0
 40
455.4253491617612
 41
0.6751311480976844
 42
50.0
 43
0.0
 44
0.0
 50
0.0
 51
0.0
 71
     0
 72
   100
 73
     1
 74
     3
 75
     0
 76
     0
 77
     0
 78
     0
  0
ENDTAB
  0
TABLE
  2
LTYPE
  5
5
330
0
100
AcDbSymbolTable
 70
     1
  0
LTYPE
  5
14
330
5
100
AcDbSymbolTableRecord
100
AcDbLinetypeTableRecord
  2
BYBLOCK
 70
     0
  3

 72
    65
 73
     0
 40
0.0
  0
LTYPE
  5
15
330
5
100
AcDbSymbolTableRecord
100
AcDbLinetypeTableRecord
  2
BYLAYER
 70
     0
  3

 72
    65
 73
     0
 40
0.0
  0
LTYPE
  5
16
330
5
100
AcDbSymbolTableRecord
100
AcDbLinetypeTableRecord
  2
CONTINUOUS
 70
     0
  3
Solid line
 72
    65
 73
     0
 40
0.0
  0
ENDTAB
  0
TABLE
  2
LAYER
  5
2
330
0
100
AcDbSymbolTable
 70
     3
  0
LAYER
  5
10
330
2
100
AcDbSymbolTableRecord
100
AcDbLayerTableRecord
  2
0
 70
     0
 62
     7
  6
CONTINUOUS
  0
LAYER
  5
6E
330
2
100
AcDbSymbolTableRecord
100
AcDbLayerTableRecord
  2
TABLETOP$LASERCUTPLY3MMINN
 70
     0
 62
     1
  6
CONTINUOUS
  0
LAYER
  5
73
330
2
100
AcDbSymbolTableRecord
100
AcDbLayerTableRecord
  2
TABLETOP$LASERCUTPLY3MMOUT
 70
     0
 62
     3
  6
CONTINUOUS
  0
ENDTAB
  0
TABLE
  2
STYLE
  5
3
330
0
100
AcDbSymbolTable
 70
     1
  0
STYLE
  5
11
330
3
100
AcDbSymbolTableRecord
100
AcDbTextStyleTableRecord
  2
STANDARD
 70
     0
 40
0.0
 41
1.0
 50
0.0
 71
     0
 42
0.2
  3
txt
  4

  0
ENDTAB
  0
TABLE
  2
VIEW
  5
6
330
0
100
AcDbSymbolTable
 70
     0
  0
ENDTAB
  0
TABLE
  2
UCS
  5
7
330
0
100
AcDbSymbolTable
 70
     0
  0
ENDTAB
  0
TABLE
  2
APPID
  5
9
330
0
100
AcDbSymbolTable
 70
     2
  0
APPID
  5
12
330
9
100
AcDbSymbolTableRecord
100
AcDbRegAppTableRecord
  2
ACAD
 70
     0
  0
APPID
  5
116
330
9
100
AcDbSymbolTableRecord
100
AcDbRegAppTableRecord
  2
ACAD_MLEADERVER
 70
     0
  0
ENDTAB
  0
TABLE
  2
DIMSTYLE
  5
A
330
0
100
AcDbSymbolTable
 70
     1
  0
DIMSTYLE
105
27
330
A
100
AcDbSymbolTableRecord
100
AcDbDimStyleTableRecord
  2
STANDARD
 70
     0
  3

  4

  5

  6

  7

 40
1.0
 41
0.18
 42
0.0625
 43
0.38
 44
0.18
 45
0.0
 46
0.0
 47
0.0
 48
0.0
140
0.18
141
0.09
142
0.0
143
25.4
144
1.0
145
0.0
146
1.0
147
0.09
 71
     0
 72
     0
 73
     1
 74
     1
 75
     0
 76
     0
 77
     0
 78
     0
170
     0
171
     2
172
     0
173
     0
174
     0
175
     0
176
     0
177
     0
178
     0
270
     2
271
     4
272
     4
273
     2
274
     2
340
11
275
     0
280
     0
281
     0
282
     0
283
     1
284
     0
285
     0
286
     0
287
     3
288
     0
  0
ENDTAB
  0
TABLE
  2
BLOCK_RECORD
  5
1
330
0
100
AcDbSymbolTable
 70
     1
  0
BLOCK_RECORD
  5
1F
330
1
100
AcDbSymbolTableRecord
100
AcDbBlockTableRecord
  2
*MODEL_SPACE
  0
BLOCK_RECORD
  5
1B
330
1
100
AcDbSymbolTableRecord
100
AcDbBlockTableRecord
  2
*PAPER_SPACE
  0
ENDTAB
  0
ENDSEC
  0
SECTION
  2
BLOCKS
  0
BLOCK
  5
20
330
1F
100
AcDbEntity
  8
0
100
AcDbBlockBegin
  2
*MODEL_SPACE
 70
     0
 10
0.0
 20
0.0
 30
0.0
  3
*MODEL_SPACE
  1

  0
ENDBLK
  5
21
330
1F
100
AcDbEntity
  8
0
100
AcDbBlockEnd
  0
BLOCK
  5
1C
330
1B
100
AcDbEntity
 67
     1
  8
0
100
AcDbBlockBegin
  2
*PAPER_SPACE
 70
     0
 10
0.0
 20
0.0
 30
0.0
  3
*PAPER_SPACE
  1

  0
ENDBLK
  5
1D
330
1B
100
AcDbEntity
 67
     1
  8
0
100
AcDbBlockEnd
  0
ENDSEC
  0
SECTION
  2
ENTITIES
  0
CIRCLE
  5
6F
330
1F
100
AcDbEntity
  8
TABLETOP$LASERCUTPLY3MMINN
100
AcDbCircle
 10
-1060.699905203896
 20
733.5639807051712
 30
0.0
 40
1.500000000000247
  0
CIRCLE
  5
70
330
1F
100
AcDbEntity
  8
TABLETOP$LASERCUTPLY3MMINN
100
AcDbCircle
 10
-1015.633286609356
 20
662.7713572063338
 30
0.0
 40
1.499999999999968
  0
CIRCLE
  5
71
330
1F
100
AcDbEntity
  8
TABLETOP$LASERCUTPLY3MMINN
100
AcDbCircle
 10
-1002.291821334042
 20
579.919547491647
 30
0.0
 40
1.499999999999941
  0
CIRCLE
  5
72
330
1F
100
AcDbEntity
  8
TABLETOP$LASERCUTPLY3MMINN
100
AcDbCircle
 10
-1017.91240839909
 20
509.5688797455857
 30
0.0
 40
4.0
  0
ARC
  5
74
330
1F
100
AcDbEntity
  8
TABLETOP$LASERCUTPLY3MMOUT
100
AcDbCircle
 10
-1209.591346359668
 20
589.0385893354976
 30
0.0
 40
220.0000000000001
100
AcDbArc
 50
347.4812002871682
 51
57.4812002871682
  0
ARC
  5
75
330
1F
100
AcDbEntity
  8
TABLETOP$LASERCUTPLY3MMOUT
100
AcDbCircle
 10
-1209.59134635966
 20
589.0385893354951
 30
0.0
 40
219.9999999999922
100
AcDbArc
 50
327.4628473809208
 51
347.4812002871684
  0
LINE
  5
76
330
1F
100
AcDbEntity
  8
TABLETOP$LASERCUTPLY3MMOUT
100
AcDbLine
 10
-1024.121916197851
 20
470.7123856633988
 30
0.0
 11
-1045.197987807148
 21
484.1585451715919
 31
0.0
  0
ARC
  5
77
330
1F
100
AcDbEntity
  8
TABLETOP$LASERCUTPLY3MMOUT
100
AcDbCircle
 10
-1209.591346359668
 20
589.0385893354975
 30
0.0
 40
195.0000000000002
100
AcDbArc
 50
327.4628473809214
 51
57.48120028716803
  0
LINE
  5
78
330
1F
100
AcDbEntity
  8
TABLETOP$LASERCUTPLY3MMOUT
100
AcDbLine
 10
-1104.763965832673
 20
753.4655344869799
 30
0.0
 11
-1091.324558072801
 21
774.545912070503
 31
0.0
  0
CIRCLE
  5
79
330
1F
100
AcDbEntity
  8
TABLETOP$LASERCUTPLY3MMINN
100
AcDbCircle
 10
-1052.689922470824
 20
502.0581316630552
 30
0.0
 40
4.00000000000011
  0
ARC
  5
7A
330
1F
100
AcDbEntity
  8
TABLETOP$LASERCUTPLY3MMOUT
100
AcDbCircle
 10
-1069.328563202924
 20
692.9600823070122
 30
0.0
 40
6.99999999981826
100
AcDbArc
 50
347.4812002846421
 51
77.48120029015256
  0
LINE
  5
7B
330
1F
100
AcDbEntity
  8
TABLETOP$LASERCUTPLY3MMOUT
100
AcDbLine
 10
-1067.811243612901
 20
699.7936568664347
 30
0.0
 11
-1093.926027769313
 21
705.5921556250178
 31
0.0
  0
ARC
  5
7C
330
1F
100
AcDbEntity
  8
TABLETOP$LASERCUTPLY3MMOUT
100
AcDbCircle
 10
-1244.368860431401
 20
581.5278412529694
 30
0.0
 40
194.9999999999979
100
AcDbArc
 50
39.51106708752472
 51
57.48120028716806
  0
LINE
  5
7D
330
1F
100
AcDbEntity
  8
TABLETOP$LASERCUTPLY3MMOUT
100
AcDbLine
 10
-1139.541479904407
 20
745.9547864044496
 30
0.0
 11
-1126.102072144535
 21
767.035163987973
 31
0.0
  0
ARC
  5
7E
330
1F
100
AcDbEntity
  8
TABLETOP$LASERCUTPLY3MMOUT
100
AcDbCircle
 10
-1244.368860431402
 20
581.5278412529672
 30
0.0
 40
220.0000000000007
100
AcDbArc
 50
347.4812002871683
 51
57.48120028716807
  0
ARC
  5
7F
330
1F
100
AcDbEntity
  8
TABLETOP$LASERCUTPLY3MMOUT
100
AcDbCircle
 10
-1244.368860431387
 20
581.5278412529599
 30
0.0
 40
219.9999999999835
100
AcDbArc
 50
327.4628473809209
 51
347.4812002871692
  0
LINE
  5
80
330
1F
100
AcDbEntity
  8
TABLETOP$LASERCUTPLY3MMOUT
100
AcDbLine
 10
-1058.899430269585
 20
463.2016375808687
 30
0.0
 11
-1079.975501878882
 21
476.6477970890619
 31
0.0
  0
ARC
  5
81
330
1F
100
AcDbEntity
  8
TABLETOP$LASERCUTPLY3MMOUT
100
AcDbCircle
 10
-1244.368860431402
 20
581.5278412529674
 30
0.0
 40
195.0
100
AcDbArc
 50
327.4628473809214
 51
25.45133348671755
  0
LINE
  5
82
330
1F
100
AcDbEntity
  8
TABLETOP$LASERCUTPLY3MMOUT
100
AcDbLine
 10
-1068.293487402241
 20
665.3279785597966
 30
0.0
 11
-1062.494988643648
 21
691.442762716332
 31
0.0
  0
CIRCLE
  5
83
330
1F
100
AcDbEntity
  8
TABLETOP$LASERCUTPLY3MMINN
100
AcDbCircle
 10
-1037.069335405776
 20
572.4087994091167
 30
0.0
 40
1.499999999999951
  0
CIRCLE
  5
84
330
1F
100
AcDbEntity
  8
TABLETOP$LASERCUTPLY3MMINN
100
AcDbCircle
 10
-1050.41080068109
 20
655.2606091238034
 30
0.0
 40
1.499999999999903
  0
CIRCLE
  5
85
330
1F
100
AcDbEntity
  8
TABLETOP$LASERCUTPLY3MMINN
100
AcDbCircle
 10
-1095.47741927563
 20
726.053232622641
 30
0.0
 40
1.499999999999921
  0
CIRCLE
  5
86
330
1F
100
AcDbEntity
  8
TABLETOP$LASERCUTPLY3MMINN
100
AcDbCircle
 10
-1015.048790155319
 20
775.0104237478192
 30
0.0
 40
4.000000000000116
  0
CIRCLE
  5
87
330
1F
100
AcDbEntity
  8
TABLETOP$LASERCUTPLY3MMINN
100
AcDbCircle
 10
-935.8567672198824
 20
630.9704818404376
 30
0.0
 40
1.499999999999995
  0
CIRCLE
  5
88
330
1F
100
AcDbEntity
  8
TABLETOP$LASERCUTPLY3MMINN
100
AcDbCircle
 10
-944.9175776239603
 20
547.5419568414154
 30
0.0
 40
1.499999999999591
  0
CIRCLE
  5
89
330
1F
100
AcDbEntity
  8
TABLETOP$LASERCUTPLY3MMINN
100
AcDbCircle
 10
-960.5813927078589
 20
711.1657968399633
 30
0.0
 40
1.500000000000095
  0
LINE
  5
8A
330
1F
100
AcDbEntity
  8
TABLETOP$LASERCUTPLY3MMOUT
100
AcDbLine
 10
-964.5003041349588
 20
691.0236862073838
 30
0.0
 11
-940.8512047401049
 21
678.5207010757605
 31
0.0
  0
ARC
  5
8B
330
1F
100
AcDbEntity
  8
TABLETOP$LASERCUTPLY3MMOUT
100
AcDbCircle
 10
-944.1229178276475
 20
672.3323334824239
 30
0.0
 40
6.999999999818276
100
AcDbArc
 50
332.1351478490841
 51
62.13514785459666
  0
LINE
  5
8C
330
1F
100
AcDbEntity
  8
TABLETOP$LASERCUTPLY3MMOUT
100
AcDbLine
 10
-937.9345502346258
 20
669.060620394286
 30
0.0
 11
-950.4375353662919
 21
645.4115209993162
 31
0.0
  0
ARC
  5
8D
330
1F
100
AcDbEntity
  8
TABLETOP$LASERCUTPLY3MMOUT
100
AcDbCircle
 10
-1142.412502694174
 20
611.197314601084
 30
0.0
 40
195.000000000002
100
AcDbArc
 50
332.1351478516086
 51
10.10528105115766
  0
LINE
  5
8E
330
1F
100
AcDbEntity
  8
TABLETOP$LASERCUTPLY3MMOUT
100
AcDbLine
 10
-970.0222625943599
 20
520.0567357224685
 30
0.0
 11
-947.9209497610508
 21
508.3720461226461
 31
0.0
  0
ARC
  5
8F
330
1F
100
AcDbEntity
  8
TABLETOP$LASERCUTPLY3MMOUT
100
AcDbCircle
 10
-1142.412552709581
 20
611.1973337209267
 30
0.0
 40
220.000053152625
100
AcDbArc
 50
332.1351495375716
 51
346.0232335396114
  0
ARC
  5
90
330
1F
100
AcDbEntity
  8
TABLETOP$LASERCUTPLY3MMOUT
100
AcDbCircle
 10
-1142.412502694174
 20
611.1973146010836
 30
0.0
 40
220.0000000000017
100
AcDbArc
 50
346.0232352255746
 51
42.13514785160809
  0
POLYLINE
  5
91
330
1F
100
AcDbEntity
  8
TABLETOP$LASERCUTPLY3MMOUT
100
AcDb2dPolyline
 66
     1
 10
0.0
 20
0.0
 30
0.0
  0
VERTEX
  5
92
330
91
100
AcDbEntity
  8
TABLETOP$LASERCUTPLY3MMOUT
100
AcDbVertex
100
AcDb2dVertex
 10
-979.2683278648364
 20
758.7912786350345
 30
0.0
 42
0.0874886635259206
  0
VERTEX
  5
93
330
91
100
AcDbEntity
  8
TABLETOP$LASERCUTPLY3MMOUT
100
AcDbVertex
100
AcDb2dVertex
 10
-1039.587234215734
 20
805.6888675342053
 30
0.0
  0
VERTEX
  5
94
330
91
100
AcDbEntity
  8
TABLETOP$LASERCUTPLY3MMOUT
100
AcDbVertex
100
AcDb2dVertex
 10
-1051.271923815557
 20
783.587554700896
 30
0.0
 42
-0.0874886635259433
  0
VERTEX
  5
95
330
91
100
AcDbEntity
  8
TABLETOP$LASERCUTPLY3MMOUT
100
AcDbVertex
100
AcDb2dVertex
 10
-997.8074386408973
 20
742.0192372675403
 30
0.0
  0
SEQEND
  5
96
330
91
100
AcDbEntity
  8
TABLETOP$LASERCUTPLY3MMOUT
  0
ARC
  5
97
330
1F
100
AcDbEntity
  8
TABLETOP$LASERCUTPLY3MMOUT
100
AcDbCircle
 10
-1142.412502694176
 20
611.197314601082
 30
0.0
 40
195.000000000004
100
AcDbArc
 50
24.16501465196537
 51
42.13514785160815
  0
CIRCLE
  5
98
330
1F
100
AcDbEntity
  8
TABLETOP$LASERCUTPLY3MMINN
100
AcDbCircle
 10
-1048.649627063479
 20
763.7995151291515
 30
0.0
 40
3.999999999999856
  0
CIRCLE
  5
99
330
1F
100
AcDbEntity
  8
TABLETOP$LASERCUTPLY3MMINN
100
AcDbCircle
 10
-969.4576041280427
 20
619.7595732217693
 30
0.0
 40
1.499999999999834
  0
CIRCLE
  5
9A
330
1F
100
AcDbEntity
  8
TABLETOP$LASERCUTPLY3MMINN
100
AcDbCircle
 10
-978.5184145321205
 20
536.3310482227477
 30
0.0
 40
1.499999999999741
  0
CIRCLE
  5
9B
330
1F
100
AcDbEntity
  8
TABLETOP$LASERCUTPLY3MMINN
100
AcDbCircle
 10
-994.1822296160186
 20
699.9548882212955
 30
0.0
 40
1.50000000000013
  0
LINE
  5
9C
330
1F
100
AcDbEntity
  8
TABLETOP$LASERCUTPLY3MMOUT
100
AcDbLine
 10
-998.1011410431187
 20
679.8127775887157
 30
0.0
 11
-974.4520416482645
 21
667.3097924570922
 31
0.0
  0
ARC
  5
9D
330
1F
100
AcDbEntity
  8
TABLETOP$LASERCUTPLY3MMOUT
100
AcDbCircle
 10
-977.7237547358071
 20
661.121424863756
 30
0.0
 40
6.999999999817874
100
AcDbArc
 50
332.1351478490816
 51
62.13514785459493
  0
LINE
  5
9E
330
1F
100
AcDbEntity
  8
TABLETOP$LASERCUTPLY3MMOUT
100
AcDbLine
 10
-971.5353871427859
 20
657.849711775618
 30
0.0
 11
-984.0383722744515
 21
634.2006123806478
 31
0.0
  0
ARC
  5
9F
330
1F
100
AcDbEntity
  8
TABLETOP$LASERCUTPLY3MMOUT
100
AcDbCircle
 10
-1176.01333960233
 20
599.9864059824156
 30
0.0
 40
194.9999999999983
100
AcDbArc
 50
332.1351478516082
 51
10.10528105115796
  0
LINE
  5
A0
330
1F
100
AcDbEntity
  8
TABLETOP$LASERCUTPLY3MMOUT
100
AcDbLine
 10
-1003.62309950252
 20
508.8458271038006
 30
0.0
 11
-981.5217866692109
 21
497.1611375039779
 31
0.0
  0
ARC
  5
A1
330
1F
100
AcDbEntity
  8
TABLETOP$LASERCUTPLY3MMOUT
100
AcDbCircle
 10
-1176.01338961775
 20
599.9864251022628
 30
0.0
 40
220.0000531526352
100
AcDbArc
 50
332.1351495375717
 51
346.023233539611
  0
ARC
  5
A2
330
1F
100
AcDbEntity
  8
TABLETOP$LASERCUTPLY3MMOUT
100
AcDbCircle
 10
-1176.013339602334
 20
599.9864059824157
 30
0.0
 40
220.0000000000018
100
AcDbArc
 50
346.0232352255745
 51
42.13514785160803
  0
POLYLINE
  5
A3
330
1F
100
AcDbEntity
  8
TABLETOP$LASERCUTPLY3MMOUT
100
AcDb2dPolyline
 66
     1
 10
0.0
 20
0.0
 30
0.0
  0
VERTEX
  5
A4
330
A3
100
AcDbEntity
  8
TABLETOP$LASERCUTPLY3MMOUT
100
AcDbVertex
100
AcDb2dVertex
 10
-1012.869164772996
 20
747.5803700163664
 30
0.0
 42
0.0874886635259203
  0
VERTEX
  5
A5
330
A3
100
AcDbEntity
  8
TABLETOP$LASERCUTPLY3MMOUT
100
AcDbVertex
100
AcDb2dVertex
 10
-1073.188071123895
 20
794.4779589155372
 30
0.0
  0
VERTEX
  5
A6
330
A3
100
AcDbEntity
  8
TABLETOP$LASERCUTPLY3MMOUT
100
AcDbVertex
100
AcDb2dVertex
 10
-1084.872760723717
 20
772.3766460822281
 30
0.0
 42
-0.0874886635259406
  0
VERTEX
  5
A7
330
A3
100
AcDbEntity
  8
TABLETOP$LASERCUTPLY3MMOUT
100
AcDbVertex
100
AcDb2dVertex
 10
-1031.408275549058
 20
730.808328648872
 30
0.0
  0
SEQEND
  5
A8
330
A3
100
AcDbEntity
  8
TABLETOP$LASERCUTPLY3MMOUT
  0
ARC
  5
A9
330
1F
100
AcDbEntity
  8
TABLETOP$LASERCUTPLY3MMOUT
100
AcDbCircle
 10
-1176.013339602343
 20
599.9864059824096
 30
0.0
 40
195.0000000000118
100
AcDbArc
 50
24.16501465196568
 51
42.13514785160774
  0
LINE
  5
AA
330
1F
100
AcDbEntity
  8
TABLETOP$LASERCUTPLY3MMOUT
100
AcDbLine
 10
-1148.166843612254
 20
485.0695171250271
 30
0.0
 11
-1171.815943007108
 21
497.5725022566506
 31
0.0
  0
ARC
  5
AB
330
1F
100
AcDbEntity
  8
TABLETOP$LASERCUTPLY3MMOUT
100
AcDbCircle
 10
-1168.544229919565
 20
503.7608698499866
 30
0.0
 40
6.999999999817667
100
AcDbArc
 50
152.1351478490795
 51
242.1351478545961
  0
LINE
  5
AC
330
1F
100
AcDbEntity
  8
TABLETOP$LASERCUTPLY3MMOUT
100
AcDbLine
 10
-1174.732597512586
 20
507.0325829381248
 30
0.0
 11
-1162.229612380921
 21
530.681682333095
 31
0.0
  0
ARC
  5
AD
330
1F
100
AcDbEntity
  8
TABLETOP$LASERCUTPLY3MMOUT
100
AcDbCircle
 10
-970.254645053033
 20
564.8958887313258
 30
0.0
 40
195.0000000000069
100
AcDbArc
 50
152.135147851609
 51
190.1052810511571
  0
LINE
  5
AE
330
1F
100
AcDbEntity
  8
TABLETOP$LASERCUTPLY3MMOUT
100
AcDbLine
 10
-1142.644885152852
 20
656.0364676099422
 30
0.0
 11
-1164.746197986161
 21
667.7211572097649
 31
0.0
  0
ARC
  5
AF
330
1F
100
AcDbEntity
  8
TABLETOP$LASERCUTPLY3MMOUT
100
AcDbCircle
 10
-970.2545950376224
 20
564.8958696114801
 30
0.0
 40
220.0000531526348
100
AcDbArc
 50
152.1351495375717
 51
166.023233539611
  0
ARC
  5
B0
330
1F
100
AcDbEntity
  8
TABLETOP$LASERCUTPLY3MMOUT
100
AcDbCircle
 10
-970.2546450530397
 20
564.8958887313267
 30
0.0
 40
220.0000000000005
100
AcDbArc
 50
166.0232352255744
 51
222.1351478516083
  0
POLYLINE
  5
B1
330
1F
100
AcDbEntity
  8
TABLETOP$LASERCUTPLY3MMOUT
100
AcDb2dPolyline
 66
     1
 10
0.0
 20
0.0
 30
0.0
  0
VERTEX
  5
B2
330
B1
100
AcDbEntity
  8
TABLETOP$LASERCUTPLY3MMOUT
100
AcDbVertex
100
AcDb2dVertex
 10
-1133.398819882376
 20
417.3019246973764
 30
0.0
 42
0.0874886635259225
  0
VERTEX
  5
B3
330
B1
100
AcDbEntity
  8
TABLETOP$LASERCUTPLY3MMOUT
100
AcDbVertex
100
AcDb2dVertex
 10
-1073.079913531478
 20
370.4043357982056
 30
0.0
  0
VERTEX
  5
B4
330
B1
100
AcDbEntity
  8
TABLETOP$LASERCUTPLY3MMOUT
100
AcDbVertex
100
AcDb2dVertex
 10
-1061.395223931655
 20
392.5056486315147
 30
0.0
 42
-0.0874886635259409
  0
VERTEX
  5
B5
330
B1
100
AcDbEntity
  8
TABLETOP$LASERCUTPLY3MMOUT
100
AcDbVertex
100
AcDb2dVertex
 10
-1114.859709106315
 20
434.0739660648707
 30
0.0
  0
SEQEND
  5
B6
330
B1
100
AcDbEntity
  8
TABLETOP$LASERCUTPLY3MMOUT
  0
ARC
  5
B7
330
1F
100
AcDbEntity
  8
TABLETOP$LASERCUTPLY3MMOUT
100
AcDbCircle
 10
-970.2546450530515
 20
564.8958887313181
 30
0.0
 40
194.9999999999857
100
AcDbArc
 50
204.1650146519643
 51
222.1351478516087
  0
CIRCLE
  5
B8
330
1F
100
AcDbEntity
  8
TABLETOP$LASERCUTPLY3MMINN
100
AcDbCircle
 10
-1152.085755039354
 20
464.9274064924473
 30
0.0
 40
1.50000000000013
  0
CIRCLE
  5
B9
330
1F
100
AcDbEntity
  8
TABLETOP$LASERCUTPLY3MMINN
100
AcDbCircle
 10
-1167.749570123252
 20
628.551246490995
 30
0.0
 40
1.499999999999885
  0
CIRCLE
  5
BA
330
1F
100
AcDbEntity
  8
TABLETOP$LASERCUTPLY3MMINN
100
AcDbCircle
 10
-1176.810380527329
 20
545.122721491973
 30
0.0
 40
1.500000000000298
  0
CIRCLE
  5
BB
330
1F
100
AcDbEntity
  8
TABLETOP$LASERCUTPLY3MMINN
100
AcDbCircle
 10
-1097.618357591894
 20
401.0827795845914
 30
0.0
 40
4.000000000000083
  0
LINE
  5
BC
330
1F
100
AcDbEntity
  8
TABLETOP$LASERCUTPLY3MMOUT
100
AcDbLine
 10
-1181.767680520413
 20
473.858608506359
 30
0.0
 11
-1205.416779915267
 21
486.3615936379823
 31
0.0
  0
ARC
  5
BD
330
1F
100
AcDbEntity
  8
TABLETOP$LASERCUTPLY3MMOUT
100
AcDbCircle
 10
-1202.145066827724
 20
492.549961231319
 30
0.0
 40
6.999999999818695
100
AcDbArc
 50
152.135147849088
 51
242.1351478545922
  0
LINE
  5
BE
330
1F
100
AcDbEntity
  8
TABLETOP$LASERCUTPLY3MMOUT
100
AcDbLine
 10
-1208.333434420746
 20
495.8216743194567
 30
0.0
 11
-1195.83044928908
 21
519.4707737144266
 31
0.0
  0
ARC
  5
BF
330
1F
100
AcDbEntity
  8
TABLETOP$LASERCUTPLY3MMOUT
100
AcDbCircle
 10
-1003.85548196119
 20
553.6849801126576
 30
0.0
 40
195.0000000000095
100
AcDbArc
 50
152.1351478516093
 51
190.105281051157
  0
LINE
  5
C0
330
1F
100
AcDbEntity
  8
TABLETOP$LASERCUTPLY3MMOUT
100
AcDbLine
 10
-1176.245722061012
 20
644.8255589912743
 30
0.0
 11
-1198.347034894321
 21
656.5102485910967
 31
0.0
  0
ARC
  5
C1
330
1F
100
AcDbEntity
  8
TABLETOP$LASERCUTPLY3MMOUT
100
AcDbCircle
 10
-1003.855431945802
 20
553.6849609928199
 30
0.0
 40
220.000053152614
100
AcDbArc
 50
152.1351495375712
 51
166.0232335396117
  0
ARC
  5
C2
330
1F
100
AcDbEntity
  8
TABLETOP$LASERCUTPLY3MMOUT
100
AcDbCircle
 10
-1003.8554819612
 20
553.6849801126588
 30
0.0
 40
219.9999999999999
100
AcDbArc
 50
166.0232352255744
 51
222.1351478516083
  0
POLYLINE
  5
C3
330
1F
100
AcDbEntity
  8
TABLETOP$LASERCUTPLY3MMOUT
100
AcDb2dPolyline
 66
     1
 10
0.0
 20
0.0
 30
0.0
  0
VERTEX
  5
C4
330
C3
100
AcDbEntity
  8
TABLETOP$LASERCUTPLY3MMOUT
100
AcDbVertex
100
AcDb2dVertex
 10
-1166.999656790536
 20
406.0910160787084
 30
0.0
 42
0.0874886635259234
  0
VERTEX
  5
C5
330
C3
100
AcDbEntity
  8
TABLETOP$LASERCUTPLY3MMOUT
100
AcDbVertex
100
AcDb2dVertex
 10
-1106.680750439638
 20
359.1934271795374
 30
0.0
  0
VERTEX
  5
C6
330
C3
100
AcDbEntity
  8
TABLETOP$LASERCUTPLY3MMOUT
100
AcDbVertex
100
AcDb2dVertex
 10
-1094.996060839816
 20
381.2947400128468
 30
0.0
 42
-0.0874886635259433
  0
VERTEX
  5
C7
330
C3
100
AcDbEntity
  8
TABLETOP$LASERCUTPLY3MMOUT
100
AcDbVertex
100
AcDb2dVertex
 10
-1148.460546014475
 20
422.8630574462024
 30
0.0
  0
SEQEND
  5
C8
330
C3
100
AcDbEntity
  8
TABLETOP$LASERCUTPLY3MMOUT
  0
ARC
  5
C9
330
1F
100
AcDbEntity
  8
TABLETOP$LASERCUTPLY3MMOUT
100
AcDbCircle
 10
-1003.855481961208
 20
553.6849801126526
 30
0.0
 40
194.9999999999898
100
AcDbArc
 50
204.1650146519646
 51
222.1351478516087
  0
CIRCLE
  5
CA
330
1F
100
AcDbEntity
  8
TABLETOP$LASERCUTPLY3MMINN
100
AcDbCircle
 10
-1185.686591947514
 20
453.7164978737794
 30
0.0
 40
1.50000000000019
  0
CIRCLE
  5
CB
330
1F
100
AcDbEntity
  8
TABLETOP$LASERCUTPLY3MMINN
100
AcDbCircle
 10
-1201.350407031412
 20
617.3403378723272
 30
0.0
 40
1.499999999999947
  0
CIRCLE
  5
CC
330
1F
100
AcDbEntity
  8
TABLETOP$LASERCUTPLY3MMINN
100
AcDbCircle
 10
-1210.41121743549
 20
533.911812873305
 30
0.0
 40
1.50000000000012
  0
CIRCLE
  5
CD
330
1F
100
AcDbEntity
  8
TABLETOP$LASERCUTPLY3MMINN
100
AcDbCircle
 10
-1131.219194500054
 20
389.8718709659233
 30
0.0
 40
4.000000000000285
  0
CIRCLE
  5
CE
330
1F
100
AcDbEntity
  8
TABLETOP$LASERCUTPLY3MMINN
100
AcDbCircle
 10
-1050.790565379742
 20
438.8290620911017
 30
0.0
 40
1.500000000000044
  0
CIRCLE
  5
CF
330
1F
100
AcDbEntity
  8
TABLETOP$LASERCUTPLY3MMINN
100
AcDbCircle
 10
-1095.857183974282
 20
509.6216855899391
 30
0.0
 40
1.500000000000034
  0
CIRCLE
  5
D0
330
1F
100
AcDbEntity
  8
TABLETOP$LASERCUTPLY3MMINN
100
AcDbCircle
 10
-1109.198649249597
 20
592.4734953046259
 30
0.0
 40
1.500000000000188
  0
ARC
  5
D1
330
1F
100
AcDbEntity
  8
TABLETOP$LASERCUTPLY3MMOUT
100
AcDbCircle
 10
-1076.939421452449
 20
471.9222124067304
 30
0.0
 40
6.999999999817656
100
AcDbArc
 50
167.4812002846385
 51
257.4812002901571
  0
LINE
  5
D2
330
1F
100
AcDbEntity
  8
TABLETOP$LASERCUTPLY3MMOUT
100
AcDbLine
 10
-1078.456741042471
 20
465.0886378473081
 30
0.0
 11
-1052.341956886059
 21
459.290139088725
 31
0.0
  0
ARC
  5
D3
330
1F
100
AcDbEntity
  8
TABLETOP$LASERCUTPLY3MMOUT
100
AcDbCircle
 10
-901.8991242239729
 20
583.354453460772
 30
0.0
 40
194.9999999999959
100
AcDbArc
 50
219.5110670875247
 51
237.4812002871682
  0
LINE
  5
D4
330
1F
100
AcDbEntity
  8
TABLETOP$LASERCUTPLY3MMOUT
100
AcDbLine
 10
-1006.726504750966
 20
418.9275083092932
 30
0.0
 11
-1020.165912510837
 21
397.8471307257698
 31
0.0
  0
ARC
  5
D5
330
1F
100
AcDbEntity
  8
TABLETOP$LASERCUTPLY3MMOUT
100
AcDbCircle
 10
-901.8991242239688
 20
583.3544534607762
 30
0.0
 40
220.0000000000017
100
AcDbArc
 50
167.4812002871685
 51
237.4812002871679
  0
ARC
  5
D6
330
1F
100
AcDbEntity
  8
TABLETOP$LASERCUTPLY3MMOUT
100
AcDbCircle
 10
-901.8991242239595
 20
583.3544534607722
 30
0.0
 40
220.0000000000111
100
AcDbArc
 50
147.4628473809222
 51
167.481200287168
  0
LINE
  5
D7
330
1F
100
AcDbEntity
  8
TABLETOP$LASERCUTPLY3MMOUT
100
AcDbLine
 10
-1087.368554385787
 20
701.6806571328741
 30
0.0
 11
-1066.29248277649
 21
688.2344976246809
 31
0.0
  0
ARC
  5
D8
330
1F
100
AcDbEntity
  8
TABLETOP$LASERCUTPLY3MMOUT
100
AcDbCircle
 10
-901.8991242239701
 20
583.3544534607753
 30
0.0
 40
195.0000000000002
100
AcDbArc
 50
147.4628473809214
 51
205.4513334867174
  0
LINE
  5
D9
330
1F
100
AcDbEntity
  8
TABLETOP$LASERCUTPLY3MMOUT
100
AcDbLine
 10
-1077.974497253131
 20
499.5543161539462
 30
0.0
 11
-1083.772996011725
 21
473.4395319974108
 31
0.0
  0
CIRCLE
  5
DA
330
1F
100
AcDbEntity
  8
TABLETOP$LASERCUTPLY3MMINN
100
AcDbCircle
 10
-1093.578062184548
 20
662.8241630506876
 30
0.0
 40
4.000000000000123
  0
ARC
  5
DB
330
1F
100
AcDbEntity
  8
TABLETOP$LASERCUTPLY3MMOUT
100
AcDbCircle
 10
-936.6766382957038
 20
575.8437053782452
 30
0.0
 40
220.0000000000005
100
AcDbArc
 50
167.4812002871683
 51
237.481200287168
  0
ARC
  5
DC
330
1F
100
AcDbEntity
  8
TABLETOP$LASERCUTPLY3MMOUT
100
AcDbCircle
 10
-936.6766382957028
 20
575.8437053782436
 30
0.0
 40
220.0000000000022
100
AcDbArc
 50
147.4628473809212
 51
167.4812002871679
  0
LINE
  5
DD
330
1F
100
AcDbEntity
  8
TABLETOP$LASERCUTPLY3MMOUT
100
AcDbLine
 10
-1122.146068457521
 20
694.169909050344
 30
0.0
 11
-1101.069996848224
 21
680.7237495421509
 31
0.0
  0
ARC
  5
DE
330
1F
100
AcDbEntity
  8
TABLETOP$LASERCUTPLY3MMOUT
100
AcDbCircle
 10
-936.6766382957039
 20
575.8437053782452
 30
0.0
 40
195.0000000000007
100
AcDbArc
 50
147.4628473809214
 51
237.4812002871679
  0
LINE
  5
DF
330
1F
100
AcDbEntity
  8
TABLETOP$LASERCUTPLY3MMOUT
100
AcDbLine
 10
-1041.5040188227
 20
411.4167602267629
 30
0.0
 11
-1054.943426582571
 21
390.3363826432397
 31
0.0
  0
CIRCLE
  5
E0
330
1F
100
AcDbEntity
  8
TABLETOP$LASERCUTPLY3MMINN
100
AcDbCircle
 10
-1128.355576256282
 20
655.3134149681571
 30
0.0
 40
4.000000000000099
  0
CIRCLE
  5
E1
330
1F
100
AcDbEntity
  8
TABLETOP$LASERCUTPLY3MMINN
100
AcDbCircle
 10
-1143.976163321331
 20
584.9627472220955
 30
0.0
 40
1.500000000000292
  0
CIRCLE
  5
E2
330
1F
100
AcDbEntity
  8
TABLETOP$LASERCUTPLY3MMINN
100
AcDbCircle
 10
-1130.634698046016
 20
502.1109375074089
 30
0.0
 40
1.499999999999928
  0
CIRCLE
  5
E3
330
1F
100
AcDbEntity
  8
TABLETOP$LASERCUTPLY3MMINN
100
AcDbCircle
 10
-1085.568079451477
 20
431.3183140085715
 30
0.0
 40
1.50000000000013
  0
ENDSEC
  0
SECTION
  2
OBJECTS
  0
DICTIONARY
  5
C
330
0
100
AcDbDictionary
  3
ACAD_GROUP
350
D
  3
ACAD_LAYOUT
350
1A
  3
ACAD_MATERIAL
350
43
  3
ACAD_MLEADERSTYLE
350
6B
  3
ACAD_MLINESTYLE
350
17
  3
ACAD_PLOTSETTINGS
350
19
  3
ACAD_SCALELIST
350
47
  3
ACAD_VISUALSTYLE
350
2A
  3
ACDBHEADERROUNDTRIPXREC
350
E4
  3
ACDBVARIABLEDICTIONARY
350
105
  0
DICTIONARY
  5
10C
330
8
100
AcDbDictionary
280
     1
  3
ACAD_XREC_ROUNDTRIP
360
10D
  0
DICTIONARY
  5
D
102
{ACAD_REACTORS
330
C
102
}
330
C
100
AcDbDictionary
  0
DICTIONARY
  5
1A
102
{ACAD_REACTORS
330
C
102
}
330
C
100
AcDbDictionary
  0
DICTIONARY
  5
43
102
{ACAD_REACTORS
330
C
102
}
330
C
100
AcDbDictionary
  3
BYBLOCK
350
45
  3
BYLAYER
350
44
  3
GLOBAL
350
46
  0
DICTIONARY
  5
6B
102
{ACAD_REACTORS
330
C
102
}
330
C
100
AcDbDictionary
  3
STANDARD
350
6C
  0
DICTIONARY
  5
17
102
{ACAD_REACTORS
330
C
102
}
330
C
100
AcDbDictionary
  3
STANDARD
350
18
  0
DICTIONARY
  5
19
102
{ACAD_REACTORS
330
C
102
}
330
C
100
AcDbDictionary
  0
DICTIONARY
  5
47
102
{ACAD_REACTORS
330
C
102
}
330
C
100
AcDbDictionary
  3
A0
350
48
  3
A1
350
49
  3
A2
350
4A
  3
A3
350
4B
  3
A4
350
4C
  3
A5
350
4D
  3
A6
350
4E
  3
A7
350
4F
  3
A8
350
50
  3
A9
350
51
  3
B0
350
52
  3
B1
350
53
  3
B2
350
54
  3
B3
350
55
  3
B4
350
56
  3
B5
350
57
  3
B6
350
58
  3
B7
350
59
  3
B8
350
5A
  3
B9
350
5B
  3
C0
350
5C
  3
C1
350
5D
  3
C2
350
5E
  3
C3
350
5F
  3
C4
350
60
  3
C5
350
61
  3
C6
350
62
  3
C7
350
63
  3
C8
350
64
  3
C9
350
65
  3
D0
350
66
  3
D1
350
67
  3
D2
350
68
  0
DICTIONARY
  5
2A
102
{ACAD_REACTORS
330
C
102
}
330
C
100
AcDbDictionary
  3
2DWIREFRAME
350
2F
  3
BASIC
350
32
  3
BRIGHTEN
350
36
  3
COLORCHANGE
350
3A
  3
CONCEPTUAL
350
34
  3
DIM
350
35
  3
EDGECOLOROFF
350
3D
  3
FACEPATTERN
350
39
  3
FLAT
350
2B
  3
FLATWITHEDGES
350
2C
  3
GOURAUD
350
2D
  3
GOURAUDWITHEDGES
350
2E
  3
HIDDEN
350
31
  3
JITTEROFF
350
3B
  3
LINEPATTERN
350
38
  3
OVERHANGOFF
350
3C
  3
REALISTIC
350
33
  3
SHADED
350
42
  3
SHADED_WITH_EDGES
350
41
  3
SHADES_OF_GRAY
350
3E
  3
SKETCHY
350
3F
  3
THICKEN
350
37
  3
WIREFRAME
350
30
  3
X-RAY
350
40
  0
DICTIONARY
  5
E4
102
{ACAD_REACTORS
330
C
102
}
330
C
100
AcDbDictionary
  3
CEPSNID
350
EE
  3
CEPSNTYPE
350
ED
  3
DIMSTYLEDATA
350
104
  3
FINGERPRINTGUID
350
EF
  3
HYPERLINKBASE
350
E7
  3
INSUNITS
350
EC
  3
LAYOUTDICT
350
E9
  3
LWETCUNION
350
EB
  3
PLOTSETDICT
350
EA
  3
PSVPSCALE
350
F1
  3
PUCSBASE
350
F4
  3
PUCSORGBACK
350
FA
  3
PUCSORGBOTTOM
350
F6
  3
PUCSORGFRONT
350
F9
  3
PUCSORGLEFT
350
F7
  3
PUCSORGRIGHT
350
F8
  3
PUCSORGTOP
350
F5
  3
PUCSORTHOREF
350
F2
  3
PUCSORTHOVIEW
350
F3
  3
STYLESHEET
350
E8
  3
TSTACKALIGN
350
E5
  3
TSTACKSIZE
350
E6
  3
UCSBASE
350
FD
  3
UCSORGBACK
350
103
  3
UCSORGBOTTOM
350
FF
  3
UCSORGFRONT
350
102
  3
UCSORGLEFT
350
100
  3
UCSORGRIGHT
350
101
  3
UCSORGTOP
350
FE
  3
UCSORTHOREF
350
FB
  3
UCSORTHOVIEW
350
FC
  3
VERSIONGUID
350
F0
  0
DICTIONARY
  5
105
102
{ACAD_REACTORS
330
C
102
}
330
C
100
AcDbDictionary
  3
CANNOSCALE
350
10E
  3
CMLEADERSTYLE
350
107
  3
CTABLESTYLE
350
106
  3
DIMASSOC
350
10A
  3
HIDETEXT
350
10B
  3
MSLTSCALE
350
10F
  0
XRECORD
  5
10D
102
{ACAD_REACTORS
330
10C
102
}
330
10C
100
AcDbXrecord
102
VTR_0.000_0.000_1.000_1.000_GRIDDISPLAY
 70
     3
102
VTR_0.000_0.000_1.000_1.000_GRIDMAJOR
 70
     5
102
VTR_0.000_0.000_1.000_1.000_DEFAULTLIGHTING
280
     1
102
VTR_0.000_0.000_1.000_1.000_DEFAULTLIGHTINGTYPE
 70
     1
102
VTR_0.000_0.000_1.000_1.000_BRIGHTNESS
141
0.0
102
VTR_0.000_0.000_1.000_1.000_CONTRAST
142
0.0
  0
MATERIAL
  5
45
102
{ACAD_REACTORS
330
43
102
}
102
{ACAD_XDICTIONARY
360
112
102
}
330
43
100
AcDbMaterial
  1
BYBLOCK
  0
MATERIAL
  5
44
102
{ACAD_REACTORS
330
43
102
}
102
{ACAD_XDICTIONARY
360
110
102
}
330
43
100
AcDbMaterial
  1
BYLAYER
  0
MATERIAL
  5
46
102
{ACAD_REACTORS
330
43
102
}
102
{ACAD_XDICTIONARY
360
114
102
}
330
43
100
AcDbMaterial
  1
GLOBAL
  0
ACAD_PROXY_OBJECT
  5
6C
102
{ACAD_REACTORS
330
6B
102
}
330
6B
100
AcDbProxyObject
 90
      499
 91
      505
 93
      610
310
40901902A4063FBFFFFFE056BD1B81E855B9FC0AD7A3703D0AD73F4214DD185B99185C9900AD7A3703D0AC73F90141901A02B5E8DC0F42B1CFC02B5E8DC0F42B1CFE5764000000000000300FC0
340
14
340
0
340
11
340
0
 94
        0
1001
ACAD_MLEADERVER
1070
     2
  0
MLINESTYLE
  5
18
102
{ACAD_REACTORS
330
17
102
}
330
17
100
AcDbMlineStyle
  2
Standard
 70
     0
  3

 62
   256
 51
90.0
 52
90.0
 71
     2
 49
0.5
 62
   256
  6
BYLAYER
 49
-0.5
 62
   256
  6
BYLAYER
  0
ACAD_PROXY_OBJECT
  5
48
102
{ACAD_REACTORS
330
47
102
}
330
47
100
AcDbProxyObject
 90
      499
 91
      503
 93
       41
310
903313A31580
  0
ACAD_PROXY_OBJECT
  5
49
102
{ACAD_REACTORS
330
47
102
}
330
47
100
AcDbProxyObject
 90
      499
 91
      503
 93
      105
310
903313A324000000000000004000
  0
ACAD_PROXY_OBJECT
  5
4A
102
{ACAD_REACTORS
330
47
102
}
330
47
100
AcDbProxyObject
 90
      499
 91
      503
 93
      105
310
903313A344000000000000104000
  0
ACAD_PROXY_OBJECT
  5
4B
102
{ACAD_REACTORS
330
47
102
}
330
47
100
AcDbProxyObject
 90
      499
 91
      503
 93
      105
310
903313A354000000000000144000
  0
ACAD_PROXY_OBJECT
  5
4C
102
{ACAD_REACTORS
330
47
102
}
330
47
100
AcDbProxyObject
 90
      499
 91
      503
 93
      105
310
903313A384000000000000204000
  0
ACAD_PROXY_OBJECT
  5
4D
102
{ACAD_REACTORS
330
47
102
}
330
47
100
AcDbProxyObject
 90
      499
 91
      503
 93
      113
310
904313A31304000000000000244000
  0
ACAD_PROXY_OBJECT
  5
4E
102
{ACAD_REACTORS
330
47
102
}
330
47
100
AcDbProxyObject
 90
      499
 91
      503
 93
      113
310
904313A31364000000000000304000
  0
ACAD_PROXY_OBJECT
  5
4F
102
{ACAD_REACTORS
330
47
102
}
330
47
100
AcDbProxyObject
 90
      499
 91
      503
 93
      113
310
904313A32304000000000000344000
  0
ACAD_PROXY_OBJECT
  5
50
102
{ACAD_REACTORS
330
47
102
}
330
47
100
AcDbProxyObject
 90
      499
 91
      503
 93
      113
310
904313A333040000000000003E4000
  0
ACAD_PROXY_OBJECT
  5
51
102
{ACAD_REACTORS
330
47
102
}
330
47
100
AcDbProxyObject
 90
      499
 91
      503
 93
      113
310
904313A34304000000000000444000
  0
ACAD_PROXY_OBJECT
  5
52
102
{ACAD_REACTORS
330
47
102
}
330
47
100
AcDbProxyObject
 90
      499
 91
      503
 93
      113
310
904313A35304000000000000494000
  0
ACAD_PROXY_OBJECT
  5
53
102
{ACAD_REACTORS
330
47
102
}
330
47
100
AcDbProxyObject
 90
      499
 91
      503
 93
      121
310
905313A3130304000000000000594000
  0
ACAD_PROXY_OBJECT
  5
54
102
{ACAD_REACTORS
330
47
102
}
330
47
100
AcDbProxyObject
 90
      499
 91
      503
 93
      105
310
903323A310000000000000010100
  0
ACAD_PROXY_OBJECT
  5
55
102
{ACAD_REACTORS
330
47
102
}
330
47
100
AcDbProxyObject
 90
      499
 91
      503
 93
      105
310
903343A310000000000000410100
  0
ACAD_PROXY_OBJECT
  5
56
102
{ACAD_REACTORS
330
47
102
}
330
47
100
AcDbProxyObject
 90
      499
 91
      503
 93
      105
310
903383A310000000000000810100
  0
ACAD_PROXY_OBJECT
  5
57
102
{ACAD_REACTORS
330
47
102
}
330
47
100
AcDbProxyObject
 90
      499
 91
      503
 93
      113
310
90431303A310000000000000910100
  0
ACAD_PROXY_OBJECT
  5
58
102
{ACAD_REACTORS
330
47
102
}
330
47
100
AcDbProxyObject
 90
      499
 91
      503
 93
      121
310
9053130303A310000000000001650100
  0
ACAD_PROXY_OBJECT
  5
59
102
{ACAD_REACTORS
330
47
102
}
330
47
100
AcDbProxyObject
 90
      499
 91
      503
 93
      257
310
90E312F31323822203D2031272D3022000000000000200FC000000000000284000
  0
ACAD_PROXY_OBJECT
  5
5A
102
{ACAD_REACTORS
330
47
102
}
330
47
100
AcDbProxyObject
 90
      499
 91
      503
 93
      249
310
90D312F363422203D2031272D3022000000000000240FC000000000000284000
  0
ACAD_PROXY_OBJECT
  5
5B
102
{ACAD_REACTORS
330
47
102
}
330
47
100
AcDbProxyObject
 90
      499
 91
      503
 93
      249
310
90D312F333222203D2031272D3022000000000000280FC000000000000284000
  0
ACAD_PROXY_OBJECT
  5
5C
102
{ACAD_REACTORS
330
47
102
}
330
47
100
AcDbProxyObject
 90
      499
 91
      503
 93
      249
310
90D312F313622203D2031272D30220000000000002C0FC000000000000284000
  0
ACAD_PROXY_OBJECT
  5
5D
102
{ACAD_REACTORS
330
47
102
}
330
47
100
AcDbProxyObject
 90
      499
 91
      503
 93
      249
310
90D332F333222203D2031272D30220000000000002E0FC000000000000284000
  0
ACAD_PROXY_OBJECT
  5
5E
102
{ACAD_REACTORS
330
47
102
}
330
47
100
AcDbProxyObject
 90
      499
 91
      503
 93
      241
310
90C312F3822203D2031272D3022000000000000300FC000000000000284000
  0
ACAD_PROXY_OBJECT
  5
5F
102
{ACAD_REACTORS
330
47
102
}
330
47
100
AcDbProxyObject
 90
      499
 91
      503
 93
      249
310
90D332F313622203D2031272D3022000000000000320FC000000000000284000
  0
ACAD_PROXY_OBJECT
  5
60
102
{ACAD_REACTORS
330
47
102
}
330
47
100
AcDbProxyObject
 90
      499
 91
      503
 93
      241
310
90C312F3422203D2031272D3022000000000000340FC000000000000284000
  0
ACAD_PROXY_OBJECT
  5
61
102
{ACAD_REACTORS
330
47
102
}
330
47
100
AcDbProxyObject
 90
      499
 91
      503
 93
      241
310
90C332F3822203D2031272D3022000000000000360FC000000000000284000
  0
ACAD_PROXY_OBJECT
  5
62
102
{ACAD_REACTORS
330
47
102
}
330
47
100
AcDbProxyObject
 90
      499
 91
      503
 93
      241
310
90C312F3222203D2031272D3022000000000000380FC000000000000284000
  0
ACAD_PROXY_OBJECT
  5
63
102
{ACAD_REACTORS
330
47
102
}
330
47
100
AcDbProxyObject
 90
      499
 91
      503
 93
      241
310
90C332F3422203D2031272D30220000000000003A0FC000000000000284000
  0
ACAD_PROXY_OBJECT
  5
64
102
{ACAD_REACTORS
330
47
102
}
330
47
100
AcDbProxyObject
 90
      499
 91
      503
 93
      161
310
90A3122203D2031272D30224000000000000284000
  0
ACAD_PROXY_OBJECT
  5
65
102
{ACAD_REACTORS
330
47
102
}
330
47
100
AcDbProxyObject
 90
      499
 91
      503
 93
      257
310
90E312D312F3222203D2031272D30220000000000003E0FC000000000000284000
  0
ACAD_PROXY_OBJECT
  5
66
102
{ACAD_REACTORS
330
47
102
}
330
47
100
AcDbProxyObject
 90
      499
 91
      503
 93
      225
310
90A3322203D2031272D302200000000000002100000000000000284000
  0
ACAD_PROXY_OBJECT
  5
67
102
{ACAD_REACTORS
330
47
102
}
330
47
100
AcDbProxyObject
 90
      499
 91
      503
 93
      225
310
90A3622203D2031272D302200000000000006100000000000000284000
  0
ACAD_PROXY_OBJECT
  5
68
102
{ACAD_REACTORS
330
47
102
}
330
47
100
AcDbProxyObject
 90
      499
 91
      503
 93
      249
310
90D31272D3022203D2031272D30220000000000000A100000000000000284000
  0
ACAD_PROXY_OBJECT
  5
2F
102
{ACAD_REACTORS
330
2A
102
}
330
2A
100
AcDbProxyObject
 90
      499
 91
      501
 93
      436
310
42CC9915DA5C99599C985B595049028333333333333E33F0000000000000F90107901411070040501600405405064090741402480A0340
1001
ACAD
1000
AcDbSavedByObjectVersion
1070
     0
  0
ACAD_PROXY_OBJECT
  5
32
102
{ACAD_REACTORS
330
2A
102
}
330
2A
100
AcDbProxyObject
 90
      499
 91
      501
 93
      388
310
4150985CDA58D07406404333333333333E33F0000000000000F90107A41107004050150841D405064090741402480A0350
1001
ACAD
1000
AcDbSavedByObjectVersion
1070
     0
  0
ACAD_PROXY_OBJECT
  5
36
102
{ACAD_REACTORS
330
2A
102
}
330
2A
100
AcDbProxyObject
 90
      499
 91
      501
 93
      428
310
42109C9A59DA1D195B90C409028333333333333E33F0000000000000F9010790141107004050150841D405064090741402480A029950
1001
ACAD
1000
AcDbSavedByObjectVersion
1070
     0
  0
ACAD_PROXY_OBJECT
  5
3A
102
{ACAD_REACTORS
330
2A
102
}
330
2A
100
AcDbProxyObject
 90
      499
 91
      501
 93
      452
310
42D0DBDB1BDC90DA185B99D95104090240C333333333333E33F0000000000000F90108901411070040501508421405064090741402480A0350
1001
ACAD
1000
AcDbSavedByObjectVersion
1070
     0
  0
ACAD_PROXY_OBJECT
  5
34
102
{ACAD_REACTORS
330
2A
102
}
330
2A
100
AcDbProxyObject
 90
      499
 91
      501
 93
      500
310
4290DBDB98D95C1D1D585B10940D028333333333333E33F0000000000000F90107902409070040501000000000018199010841D405064090740C02480A0340
1001
ACAD
1000
AcDbSavedByObjectVersion
1070
     0
  0
ACAD_PROXY_OBJECT
  5
35
102
{ACAD_REACTORS
330
2A
102
}
330
2A
100
AcDbProxyObject
 90
      499
 91
      501
 93
      412
310
40D11A5B50B409028333333333333E33F0000000000000F9010790141107004050150841D405064090741402480A02677FFFFFD0
1001
ACAD
1000
AcDbSavedByObjectVersion
1070
     0
  0
ACAD_PROXY_OBJECT
  5
3D
102
{ACAD_REACTORS
330
2A
102
}
330
2A
100
AcDbProxyObject
 90
      499
 91
      501
 93
      452
310
43115919D950DBDB1BDC93D999916409028333333333333E33F0000000000000F9010790141107004050150841D405064090741402480A0350
1001
ACAD
1000
AcDbSavedByObjectVersion
1070
     0
  0
ACAD_PROXY_OBJECT
  5
39
102
{ACAD_REACTORS
330
2A
102
}
330
2A
100
AcDbProxyObject
 90
      499
 91
      501
 93
      444
310
42D19858D95C185D1D195C9B90F409028333333333333E33F0000000000000F9010790141107004050150841D405064090741402480A0350
1001
ACAD
1000
AcDbSavedByObjectVersion
1070
     0
  0
ACAD_PROXY_OBJECT
  5
2B
102
{ACAD_REACTORS
330
2A
102
}
330
2A
100
AcDbProxyObject
 90
      499
 91
      501
 93
      380
310
41119B185D240901404333333333333E33F0000000000000F9010740A907004050150841D405064090741402480A1B50
1001
ACAD
1000
AcDbSavedByObjectVersion
1070
     0
  0
ACAD_PROXY_OBJECT
  5
2C
102
{ACAD_REACTORS
330
2A
102
}
330
2A
100
AcDbProxyObject
 90
      499
 91
      501
 93
      468
310
43519B185D15DA5D1A115919D95CD0140901404333333333333E33F0000000000000F90107409019070040501600405405064090741402480A1B50
1001
ACAD
1000
AcDbSavedByObjectVersion
1070
     0
  0
ACAD_PROXY_OBJECT
  5
2D
102
{ACAD_REACTORS
330
2A
102
}
330
2A
100
AcDbProxyObject
 90
      499
 91
      501
 93
      404
310
41D1DBDD5C985D5910240902404333333333333E33F0000000000000F9010740A9070040501641D405064090741402480A1B50
1001
ACAD
1000
AcDbSavedByObjectVersion
1070
     0
  0
ACAD_PROXY_OBJECT
  5
2E
102
{ACAD_REACTORS
330
2A
102
}
330
2A
100
AcDbProxyObject
 90
      499
 91
      501
 93
      492
310
4411DBDD5C985D5915DA5D1A115919D95CD0340902404333333333333E33F0000000000000F90107409019070040501600405405064090741402480A1B50
1001
ACAD
1000
AcDbSavedByObjectVersion
1070
     0
  0
ACAD_PROXY_OBJECT
  5
31
102
{ACAD_REACTORS
330
2A
102
}
330
2A
100
AcDbProxyObject
 90
      499
 91
      501
 93
      476
310
41921A5919195B90640502408333333333333E33F0000000000000F901079024090700405020000000000001110200405405064090740C02480A0340
1001
ACAD
1000
AcDbSavedByObjectVersion
1070
     0
  0
ACAD_PROXY_OBJECT
  5
3B
102
{ACAD_REACTORS
330
2A
102
}
330
2A
100
AcDbProxyObject
 90
      499
 91
      501
 93
      428
310
42529A5D1D195C93D999914409028333333333333E33F0000000000000F9010790141107004050150A41D405064090741402480A0350
1001
ACAD
1000
AcDbSavedByObjectVersion
1070
     0
  0
ACAD_PROXY_OBJECT
  5
38
102
{ACAD_REACTORS
330
2A
102
}
330
2A
100
AcDbProxyObject
 90
      499
 91
      501
 93
      444
310
42D31A5B995C185D1D195C9B90E409028333333333333E33F0000000000000F9010790141107004050750841D405064090741402483A0350
1001
ACAD
1000
AcDbSavedByObjectVersion
1070
     0
  0
ACAD_PROXY_OBJECT
  5
3C
102
{ACAD_REACTORS
330
2A
102
}
330
2A
100
AcDbProxyObject
 90
      499
 91
      501
 93
      444
310
42D3DD995C9A185B99D3D999915409028333333333333E33F0000000000000F9010790141107004050150941D405064090741402480A0350
1001
ACAD
1000
AcDbSavedByObjectVersion
1070
     0
  0
ACAD_PROXY_OBJECT
  5
33
102
{ACAD_REACTORS
330
2A
102
}
330
2A
100
AcDbProxyObject
 90
      499
 91
      501
 93
      428
310
425499585B1A5CDD1A58D08409038333333333333E33F0000000000000F9010740A907004050150800405405064090740C02480A1B40
1001
ACAD
1000
AcDbSavedByObjectVersion
1070
     0
  0
ACAD_PROXY_OBJECT
  5
42
102
{ACAD_REACTORS
330
2A
102
}
330
2A
100
AcDbProxyObject
 90
      499
 91
      501
 93
      420
310
4194DA1859195911B40902404333333333333E33F0000000000000F9010740A41107004050150800405405064090840C02480A0B40
1001
ACAD
1000
AcDbSavedByObjectVersion
1070
     0
  0
ACAD_PROXY_OBJECT
  5
41
102
{ACAD_REACTORS
330
2A
102
}
330
2A
100
AcDbProxyObject
 90
      499
 91
      501
 93
      516
310
4454DA18591959081DDA5D1A08195919D95CD1A40902404333333333333E33F0000000000000F901074090142907004050250800405405064090740C02480A0B40
1001
ACAD
1000
AcDbSavedByObjectVersion
1070
     0
  0
ACAD_PROXY_OBJECT
  5
3E
102
{ACAD_REACTORS
330
2A
102
}
330
2A
100
AcDbProxyObject
 90
      499
 91
      501
 93
      532
310
4394DA1859195CC81BD98811DC985E5174090240C333333333333E33F0000000000000F901079024090741D01000000000000111010841D405064090740C02480A0340
1001
ACAD
1000
AcDbSavedByObjectVersion
1070
     0
  0
ACAD_PROXY_OBJECT
  5
3F
102
{ACAD_REACTORS
330
2A
102
}
330
2A
100
AcDbProxyObject
 90
      499
 91
      501
 93
      476
310
41D4DAD95D18DA1E51840502408333333333333E33F0000000000000F901079024090741D01000000000000111010B41D405064090741802480A0340
1001
ACAD
1000
AcDbSavedByObjectVersion
1070
     0
  0
ACAD_PROXY_OBJECT
  5
37
102
{ACAD_REACTORS
330
2A
102
}
330
2A
100
AcDbProxyObject
 90
      499
 91
      501
 93
      412
310
41D51A1A58DAD95B90D409028333333333333E33F0000000000000F9010790141107004050150C41D405064090741402480A0350
1001
ACAD
1000
AcDbSavedByObjectVersion
1070
     0
  0
ACAD_PROXY_OBJECT
  5
30
102
{ACAD_REACTORS
330
2A
102
}
330
2A
100
AcDbProxyObject
 90
      499
 91
      501
 93
      420
310
4255DA5C99599C985B595059028333333333333E33F0000000000000F90107901411070040501600405405064090740C02480A0340
1001
ACAD
1000
AcDbSavedByObjectVersion
1070
     0
  0
ACAD_PROXY_OBJECT
  5
40
102
{ACAD_REACTORS
330
2A
102
}
330
2A
100
AcDbProxyObject
 90
      499
 91
      501
 93
      404
310
41560B54985E51940902404000000000000E03F0000000000000F9010740501907004050150841D405064090740C02480A1B40
1001
ACAD
1000
AcDbSavedByObjectVersion
1070
     0
  0
XRECORD
  5
EE
102
{ACAD_REACTORS
330
E4
102
}
330
E4
100
AcDbXrecord
340
0
  0
XRECORD
  5
ED
102
{ACAD_REACTORS
330
E4
102
}
330
E4
100
AcDbXrecord
 90
        0
  0
XRECORD
  5
104
102
{ACAD_REACTORS
330
E4
102
}
330
E4
100
AcDbXrecord
1000
DSTYLE
1002
{
1070
   279
 70
     2
1070
   340
340
11
1002
}
  0
XRECORD
  5
EF
102
{ACAD_REACTORS
330
E4
102
}
330
E4
100
AcDbXrecord
  1
{D7C44E3D-F9C7-46D0-9DAE-89919F325872}
  0
XRECORD
  5
E7
102
{ACAD_REACTORS
330
E4
102
}
330
E4
100
AcDbXrecord
  1

  0
XRECORD
  5
EC
102
{ACAD_REACTORS
330
E4
102
}
330
E4
100
AcDbXrecord
 90
        4
  0
XRECORD
  5
E9
102
{ACAD_REACTORS
330
E4
102
}
330
E4
100
AcDbXrecord
340
1A
  0
XRECORD
  5
EB
102
{ACAD_REACTORS
330
E4
102
}
330
E4
100
AcDbXrecord
 90
    10781
  0
XRECORD
  5
EA
102
{ACAD_REACTORS
330
E4
102
}
330
E4
100
AcDbXrecord
340
19
  0
XRECORD
  5
F1
102
{ACAD_REACTORS
330
E4
102
}
330
E4
100
AcDbXrecord
 40
0.0
  0
XRECORD
  5
F4
102
{ACAD_REACTORS
330
E4
102
}
330
E4
100
AcDbXrecord
340
0
  0
XRECORD
  5
FA
102
{ACAD_REACTORS
330
E4
102
}
330
E4
100
AcDbXrecord
 10
0.0
 20
0.0
 30
0.0
  0
XRECORD
  5
F6
102
{ACAD_REACTORS
330
E4
102
}
330
E4
100
AcDbXrecord
 10
0.0
 20
0.0
 30
0.0
  0
XRECORD
  5
F9
102
{ACAD_REACTORS
330
E4
102
}
330
E4
100
AcDbXrecord
 10
0.0
 20
0.0
 30
0.0
  0
XRECORD
  5
F7
102
{ACAD_REACTORS
330
E4
102
}
330
E4
100
AcDbXrecord
 10
0.0
 20
0.0
 30
0.0
  0
XRECORD
  5
F8
102
{ACAD_REACTORS
330
E4
102
}
330
E4
100
AcDbXrecord
 10
0.0
 20
0.0
 30
0.0
  0
XRECORD
  5
F5
102
{ACAD_REACTORS
330
E4
102
}
330
E4
100
AcDbXrecord
 10
0.0
 20
0.0
 30
0.0
  0
XRECORD
  5
F2
102
{ACAD_REACTORS
330
E4
102
}
330
E4
100
AcDbXrecord
340
0
  0
XRECORD
  5
F3
102
{ACAD_REACTORS
330
E4
102
}
330
E4
100
AcDbXrecord
 70
     0
  0
XRECORD
  5
E8
102
{ACAD_REACTORS
330
E4
102
}
330
E4
100
AcDbXrecord
  1

  0
XRECORD
  5
E5
102
{ACAD_REACTORS
330
E4
102
}
330
E4
100
AcDbXrecord
 90
        1
  0
XRECORD
  5
E6
102
{ACAD_REACTORS
330
E4
102
}
330
E4
100
AcDbXrecord
 90
       70
  0
XRECORD
  5
FD
102
{ACAD_REACTORS
330
E4
102
}
330
E4
100
AcDbXrecord
340
0
  0
XRECORD
  5
103
102
{ACAD_REACTORS
330
E4
102
}
330
E4
100
AcDbXrecord
 10
0.0
 20
0.0
 30
0.0
  0
XRECORD
  5
FF
102
{ACAD_REACTORS
330
E4
102
}
330
E4
100
AcDbXrecord
 10
0.0
 20
0.0
 30
0.0
  0
XRECORD
  5
102
102
{ACAD_REACTORS
330
E4
102
}
330
E4
100
AcDbXrecord
 10
0.0
 20
0.0
 30
0.0
  0
XRECORD
  5
100
102
{ACAD_REACTORS
330
E4
102
}
330
E4
100
AcDbXrecord
 10
0.0
 20
0.0
 30
0.0
  0
XRECORD
  5
101
102
{ACAD_REACTORS
330
E4
102
}
330
E4
100
AcDbXrecord
 10
0.0
 20
0.0
 30
0.0
  0
XRECORD
  5
FE
102
{ACAD_REACTORS
330
E4
102
}
330
E4
100
AcDbXrecord
 10
0.0
 20
0.0
 30
0.0
  0
XRECORD
  5
FB
102
{ACAD_REACTORS
330
E4
102
}
330
E4
100
AcDbXrecord
340
0
  0
XRECORD
  5
FC
102
{ACAD_REACTORS
330
E4
102
}
330
E4
100
AcDbXrecord
 70
     0
  0
XRECORD
  5
F0
102
{ACAD_REACTORS
330
E4
102
}
330
E4
100
AcDbXrecord
  1
{FAEB1C32-E019-11D5-929B-00C0DF256EC4}
  0
DICTIONARYVAR
  5
10E
102
{ACAD_REACTORS
330
105
102
}
330
105
100
DictionaryVariables
280
     0
  1
1:1
  0
DICTIONARYVAR
  5
107
102
{ACAD_REACTORS
330
105
102
}
330
105
100
DictionaryVariables
280
     0
  1
Standard
  0
DICTIONARYVAR
  5
106
102
{ACAD_REACTORS
330
105
102
}
330
105
100
DictionaryVariables
280
     0
  1
Standard
  0
DICTIONARYVAR
  5
10A
102
{ACAD_REACTORS
330
105
102
}
330
105
100
DictionaryVariables
280
     0
  1
2
  0
DICTIONARYVAR
  5
10B
102
{ACAD_REACTORS
330
105
102
}
330
105
100
DictionaryVariables
280
     0
  1
1
  0
DICTIONARYVAR
  5
10F
102
{ACAD_REACTORS
330
105
102
}
330
105
100
DictionaryVariables
280
     0
  1
1
  0
DICTIONARY
  5
112
330
45
100
AcDbDictionary
280
     1
  3
ACAD_XREC_ROUNDTRIP
360
113
  0
DICTIONARY
  5
110
330
44
100
AcDbDictionary
280
     1
  3
ACAD_XREC_ROUNDTRIP
360
111
  0
DICTIONARY
  5
114
330
46
100
AcDbDictionary
280
     1
  3
ACAD_XREC_ROUNDTRIP
360
115
  0
XRECORD
  5
113
102
{ACAD_REACTORS
330
112
102
}
330
112
100
AcDbXrecord
102
MATERIAL
148
0.0
149
0.0
149
0.0
 93
        0
 94
      127
282
     0
 72
     1
 77
     1
171
     1
175
     1
179
     1
273
     0
  0
XRECORD
  5
111
102
{ACAD_REACTORS
330
110
102
}
330
110
100
AcDbXrecord
102
MATERIAL
148
0.0
149
0.0
149
0.0
 93
        0
 94
      127
282
     0
 72
     1
 77
     1
171
     1
175
     1
179
     1
273
     0
  0
XRECORD
  5
115
102
{ACAD_REACTORS
330
114
102
}
330
114
100
AcDbXrecord
102
MATERIAL
148
0.0
149
0.0
149
0.0
 93
        0
 94
      127
282
     0
 72
     1
 77
     1
171
     1
175
     1
179
     1
273
     0
  0
ENDSEC
  0
EOF
